<svg width="412" height="502" viewBox="0 0 412 502" fill="none" xmlns="http://www.w3.org/2000/svg">
<path d="M38.8412 405.158C38.8412 398.668 39.0712 392.158 38.7612 385.668C38.5412 381.218 40.3312 378.608 44.1112 376.508C54.5812 370.678 64.8612 364.508 75.3212 358.648C78.6112 356.818 79.9912 354.558 79.9412 350.648C79.8012 338.328 80.0312 325.998 80.1512 313.648C80.1512 312.428 80.2612 311.388 78.8912 310.748C67.5812 305.428 57.1312 298.568 46.3312 292.348C42.8712 290.348 40.1112 290.348 36.6412 292.408C26.0512 298.778 15.3012 304.778 4.55122 310.778C3.45122 311.388 1.95122 313.178 0.641216 311.338C-0.668784 309.498 0.211216 307.758 1.64122 306.428C2.7827 305.435 4.02635 304.567 5.35122 303.838C15.1212 298.138 24.8612 292.398 34.7212 286.838C36.0712 286.204 37.1952 285.173 37.9423 283.883C38.6895 282.592 39.0241 281.104 38.9012 279.618C38.7812 268.288 38.7512 256.948 38.9012 245.618C39.0194 244.045 38.661 242.472 37.8726 241.106C37.0841 239.74 35.9023 238.643 34.4812 237.958C24.4812 232.268 14.6012 226.468 4.68122 220.688C3.4935 220.095 2.39315 219.341 1.41122 218.448C0.0412204 217.028 -0.588784 215.138 0.821216 213.508C2.23122 211.878 3.54122 213.508 4.77122 214.188C15.1712 220.188 25.6712 225.948 35.8912 232.188C40.2312 234.848 43.6412 234.498 47.8012 231.898C57.6712 225.728 67.5112 219.458 78.1412 214.628C79.8812 213.838 80.1412 212.948 80.1412 211.238C79.9712 199.578 80.1412 187.908 79.7512 176.238C79.5012 168.968 82.8812 164.038 88.5812 160.578C98.1112 154.788 107.831 149.308 117.581 143.898C119.781 142.678 120.821 141.258 120.821 138.838C120.821 126.011 120.821 113.178 120.821 100.338C120.858 99.1659 120.528 98.0118 119.877 97.0366C119.226 96.0613 118.287 95.3136 117.191 94.8977C107.121 90.0477 97.8712 83.7677 88.1212 78.3677C82.5912 75.2977 80.1212 70.3677 79.9412 64.3677C79.6512 53.2077 79.8012 42.0377 79.8912 30.8777C79.8912 25.3877 82.8912 21.2977 87.3112 18.5677C96.3112 12.9677 105.481 7.43768 114.831 2.37768C121.251 -1.09232 127.951 -0.692305 134.371 3.10769C141.951 7.59769 149.521 12.1077 157.271 16.3377C164.271 20.1077 167.921 25.6577 167.931 33.5777C167.931 43.5777 167.931 53.5777 167.931 63.5777C167.931 70.1277 165.121 75.1277 159.431 78.4277C150.221 83.7677 141.061 89.2177 131.731 94.3477C128.261 96.2577 126.651 98.4777 126.731 102.578C126.981 114.078 126.931 125.578 126.731 137.078C126.671 140.918 128.061 143.078 131.511 144.848C142.196 150.256 152.566 156.266 162.571 162.848C164.321 164.038 165.571 164.068 167.461 162.908C177.851 156.628 188.341 150.518 198.861 144.458C204.091 141.458 209.401 141.798 214.551 144.788C224.481 150.548 234.441 156.268 244.261 162.238C246.261 163.468 247.741 163.558 249.681 162.428C260.751 155.968 271.821 149.518 282.981 143.198C285.661 141.678 285.871 139.448 285.871 136.858C285.871 124.528 285.971 112.198 285.801 99.8577C285.741 95.7277 287.101 93.1477 290.801 91.0677C302.141 84.7377 313.251 78.0677 324.471 71.4977C325.769 70.7619 327.104 70.0943 328.471 69.4977C329.981 68.8177 331.091 69.5577 331.901 70.7277C332.841 72.1077 332.281 73.3077 331.091 74.1877C329.741 75.1877 328.341 76.0677 326.901 76.9077C316.821 82.7477 306.791 88.6677 296.601 94.3177C293.111 96.2477 291.661 98.6277 291.731 102.668C291.931 114.828 291.731 126.998 291.841 139.158C291.841 143.008 290.841 145.668 287.161 147.658C276.081 153.748 265.231 160.258 254.161 166.408C251.161 168.058 249.771 169.988 249.821 173.478C249.981 184.968 250.011 196.478 249.821 207.968C249.761 211.858 251.431 214.098 254.651 215.888C264.401 221.298 274.111 226.768 283.711 232.438C286.511 234.098 288.461 234.078 291.351 232.298C300.841 226.438 310.491 220.818 320.351 215.598C322.648 214.36 325.219 213.717 327.829 213.727C330.438 213.738 333.004 214.401 335.291 215.658C346.061 221.588 357.071 227.188 367.031 234.458C369.411 236.188 370.811 234.758 372.371 233.858C381.751 228.478 391.061 222.968 400.371 217.518C401.928 216.549 403.556 215.7 405.241 214.978C407.071 214.248 409.491 213.288 410.641 215.428C411.791 217.568 409.641 219.018 407.941 220.058C404.088 222.391 400.208 224.668 396.301 226.888C389.641 230.658 383.001 234.478 376.231 238.038C373.011 239.728 371.711 242.038 371.761 245.608C371.901 256.768 371.921 267.938 371.761 279.098C371.691 282.958 373.201 285.188 376.501 287.018C386.501 292.588 396.451 298.368 406.331 304.208C408.161 305.298 411.571 306.418 409.991 309.148C408.411 311.878 405.241 310.398 402.941 309.088C392.941 303.398 382.941 297.768 373.141 291.798C369.521 289.598 367.141 289.798 363.431 292.228C354.681 297.968 345.431 303.048 336.211 307.968C332.901 309.738 331.641 311.818 331.671 315.388C331.781 326.888 331.721 338.388 331.671 349.888C331.712 351.559 331.615 353.232 331.381 354.888C331.071 356.658 330.021 358.048 328.021 357.888C327.258 357.819 326.545 357.478 326.013 356.928C325.48 356.377 325.164 355.653 325.121 354.888C324.911 353.407 324.821 351.913 324.851 350.418C324.851 339.088 324.731 327.748 324.901 316.418C324.961 312.638 323.771 310.418 320.281 308.568C310.281 303.218 300.601 297.438 290.861 291.688C288.874 290.61 287.183 289.061 285.936 287.176C284.689 285.291 283.925 283.128 283.711 280.878C282.342 269.294 282.301 257.591 283.591 245.998C284.171 240.998 282.811 238.118 278.141 235.718C269.141 231.098 260.451 225.718 251.721 220.568C248.371 218.568 245.831 218.778 242.191 220.828C231.511 226.828 221.531 234.238 209.961 238.658C207.961 239.418 208.251 240.768 208.551 242.308C210.801 254.048 209.631 265.908 209.451 277.688C209.49 280.89 208.617 284.037 206.933 286.76C205.248 289.484 202.823 291.672 199.941 293.068C189.451 298.498 179.861 305.518 169.111 310.458C167.111 311.398 167.161 312.698 167.281 314.458C168.161 327.082 168.161 339.753 167.281 352.378C167.131 354.508 167.651 355.698 169.541 356.788C180.661 363.158 191.711 369.648 202.751 376.158C205.461 377.758 207.491 377.568 210.401 375.858C221.141 369.528 231.571 362.628 243.001 357.508C244.357 356.88 245.833 356.556 247.326 356.556C248.82 356.556 250.296 356.88 251.651 357.508C263.721 362.508 274.371 369.998 285.541 376.558C290.451 379.438 291.631 384.868 291.661 390.138C291.711 401.458 292.341 412.798 291.271 424.138C291.031 426.628 292.101 427.668 294.031 428.778C305.141 435.148 316.181 441.648 327.251 448.098C328.111 448.608 329.051 448.988 329.871 449.558C331.411 450.608 333.141 451.808 331.931 453.968C330.591 456.338 328.741 455.598 326.811 454.478C318.331 449.478 309.191 445.478 301.451 439.578C292.251 432.578 284.451 432.528 275.621 439.688C271.151 443.298 265.431 445.318 260.621 448.598C251.301 454.998 242.301 454.598 233.241 448.308C225.421 442.918 216.511 439.308 208.871 433.648C208.298 433.16 207.581 432.873 206.83 432.831C206.079 432.79 205.334 432.996 204.711 433.418C193.185 440.084 181.648 446.721 170.101 453.328C167.671 454.728 167.801 457.188 167.801 459.528C167.801 470.694 167.801 481.861 167.801 493.028C167.801 494.358 167.801 495.688 167.741 497.028C167.631 498.928 167.371 500.958 164.931 501.028C162.141 501.108 161.931 498.868 161.861 496.808C161.791 495.478 161.811 494.138 161.811 492.808C161.811 482.308 161.601 471.808 161.901 461.318C162.051 456.158 160.351 453.318 155.581 450.848C144.661 445.178 134.231 438.588 123.581 432.378C121.811 431.378 120.481 430.008 121.801 427.968C123.121 425.928 125.251 426.388 127.101 427.468C137.311 433.468 147.621 439.208 157.651 445.468C162.501 448.468 166.451 449.238 171.651 445.828C180.551 440.008 189.991 435.028 199.251 429.828C202.341 428.078 203.311 425.918 203.161 422.138C202.701 410.828 202.711 399.488 203.161 388.138C203.291 384.558 202.401 382.588 199.451 380.918C188.431 374.698 177.471 368.364 166.571 361.918C164.571 360.748 163.371 361.158 161.691 362.328C152.241 368.908 141.941 374.048 132.041 379.858C126.461 383.138 120.931 383.228 115.471 379.998C105.731 374.258 95.4712 369.318 86.3012 362.688C84.3012 361.278 82.8812 360.688 80.5312 362.108C70.0812 368.248 59.5312 374.168 48.9412 380.108C45.9412 381.828 44.5912 384.248 44.6412 387.868C44.8112 399.538 44.7012 411.198 44.7012 422.868C44.7012 424.198 44.7012 425.538 44.6412 426.868C44.5112 428.958 44.0612 431.278 41.6412 431.348C38.9712 431.428 38.7912 428.938 38.7812 426.928C38.7112 419.598 38.7812 412.268 38.7812 404.928L38.8412 405.158ZM85.8412 47.5677C85.8412 52.4077 86.0712 57.2477 85.7912 62.0677C85.4312 67.9577 88.0812 71.9777 92.9112 74.7777C101.411 79.6977 109.948 84.5444 118.521 89.3177C120.104 90.2738 121.915 90.7867 123.764 90.8025C125.613 90.8184 127.432 90.3366 129.031 89.4077C138.158 84.2544 147.228 79.001 156.241 73.6477C159.501 71.7077 161.901 68.9977 161.891 64.8177C161.891 54.1577 161.971 43.4977 161.891 32.8177C161.841 28.8177 160.501 25.2077 156.831 23.0477C147.831 17.7477 138.701 12.5477 129.641 7.28769C126.211 5.28769 122.641 4.8877 119.171 6.8277C109.878 12.0077 100.641 17.2877 91.4612 22.6677C89.609 23.6571 88.0892 25.1701 87.0915 27.0179C86.0938 28.8656 85.6625 30.9663 85.8512 33.0577C86.0512 37.8977 85.8912 42.7377 85.8812 47.5677H85.8412ZM202.971 262.838C202.971 257.838 202.841 252.838 202.971 247.838C203.17 245.498 202.659 243.154 201.507 241.108C200.355 239.062 198.614 237.411 196.511 236.368C188.091 231.658 179.761 226.788 171.321 222.118C166.911 219.668 162.441 219.848 158.021 222.398C150.091 226.968 142.091 231.398 134.181 236.028C129.251 238.898 126.461 242.888 126.691 249.028C127.041 258.178 126.971 267.348 126.691 276.508C126.531 282.238 129.101 285.968 133.791 288.678C141.858 293.344 149.925 298.011 157.991 302.678C160.038 303.98 162.415 304.672 164.841 304.672C167.268 304.672 169.644 303.98 171.691 302.678C180.331 297.678 189.031 292.798 197.691 287.838C199.312 286.95 200.654 285.631 201.571 284.026C202.487 282.421 202.94 280.594 202.881 278.748C203.051 273.518 202.971 268.188 202.971 262.838ZM289.901 262.298C289.901 267.628 289.901 272.968 289.901 278.298C289.901 282.478 291.491 285.668 295.221 287.768C304.361 292.918 313.441 298.148 322.591 303.268C324.182 304.215 325.999 304.715 327.851 304.715C329.703 304.715 331.52 304.215 333.111 303.268C342.371 298.028 351.541 292.618 360.781 287.348C362.347 286.54 363.655 285.309 364.553 283.793C365.451 282.277 365.905 280.539 365.861 278.778C365.931 267.778 365.911 256.778 365.861 245.778C365.925 244.09 365.537 242.416 364.737 240.929C363.937 239.441 362.754 238.195 361.311 237.318C351.851 231.731 342.301 226.301 332.661 221.028C328.881 218.948 325.001 219.458 321.251 221.678C312.931 226.578 304.591 231.438 296.181 236.178C291.781 238.658 289.831 242.308 289.881 247.248C289.931 252.188 289.901 257.328 289.901 262.318V262.298ZM85.9012 191.158C85.9012 196.158 86.1212 201.158 85.8312 206.158C85.5412 211.158 87.7112 214.388 91.8312 216.738C100.201 221.518 108.631 226.218 116.901 231.178C122.131 234.328 126.901 233.678 131.901 230.728C139.781 226.078 147.741 221.588 155.691 217.068C159.451 214.928 161.811 211.778 161.871 207.448C162.001 196.448 161.951 185.448 161.871 174.448C161.882 172.674 161.415 170.931 160.519 169.4C159.624 167.869 158.332 166.607 156.781 165.748C147.311 160.218 137.731 154.868 128.141 149.558C126.826 148.806 125.335 148.415 123.819 148.423C122.304 148.432 120.818 148.841 119.511 149.608C110.365 154.694 101.261 159.868 92.2012 165.128C90.0456 166.243 88.2812 167.989 87.1431 170.133C86.0051 172.277 85.5474 174.717 85.8312 177.128C86.1512 181.838 85.8812 186.518 85.8912 191.178L85.9012 191.158ZM285.901 405.678C285.901 400.678 285.901 395.678 285.901 390.678C285.901 386.438 284.451 382.598 280.761 380.398C271.201 374.698 261.451 369.318 251.761 363.808C249.271 362.398 246.541 362.018 244.101 363.408C234.151 369.108 223.891 374.308 214.331 380.688C210.961 382.948 209.721 386.028 209.781 390.048C209.931 400.368 209.951 410.698 209.781 421.048C209.701 425.748 211.471 429.048 215.511 431.278C224.341 436.278 233.111 441.338 241.951 446.278C243.623 447.243 245.52 447.751 247.451 447.751C249.382 447.751 251.279 447.243 252.951 446.278C258.951 443.038 264.601 439.008 270.841 436.388C282.841 431.388 288.111 423.078 285.941 410.158C285.816 408.674 285.809 407.182 285.921 405.698L285.901 405.678ZM85.8812 333.838C85.8812 338.508 86.2012 343.198 85.8012 347.838C85.3112 353.618 87.8712 357.328 92.6012 360.068C100.521 364.638 108.471 369.178 116.261 373.958C121.551 377.208 126.461 377.038 131.711 373.858C139.711 369.028 147.791 364.448 155.891 359.858C157.751 358.877 159.299 357.396 160.359 355.58C161.42 353.765 161.951 351.689 161.891 349.588C162.018 339.094 162.018 328.604 161.891 318.118C161.963 316.185 161.505 314.269 160.565 312.579C159.625 310.888 158.241 309.487 156.561 308.528C148.211 303.688 139.941 298.738 131.481 294.098C127.881 292.098 123.971 290.228 119.681 292.528C109.431 298.028 99.1412 303.478 89.5812 310.158C88.334 311 87.3332 312.159 86.6813 313.516C86.0294 314.872 85.7498 316.378 85.8712 317.878C85.9812 323.208 85.8912 328.548 85.8812 333.838ZM44.8812 263.168C44.8812 268.008 45.1212 272.858 44.8112 277.668C44.4712 283.048 46.8112 286.468 51.3812 288.938C59.3812 293.318 67.4512 297.688 75.2912 302.388C77.4533 303.825 79.9851 304.606 82.5811 304.636C85.1771 304.666 87.7264 303.944 89.9212 302.558C98.1712 297.878 106.411 293.168 114.581 288.338C118.181 286.208 120.781 283.208 120.791 278.718C120.791 268.218 120.901 257.718 120.721 247.218C120.661 243.548 119.951 239.928 116.201 237.778C106.821 232.408 97.5612 226.778 88.0912 221.578C86.3915 220.667 84.4848 220.212 82.557 220.258C80.6292 220.303 78.746 220.848 77.0912 221.838C68.3512 226.668 59.6712 231.608 50.9412 236.478C49.0675 237.423 47.5054 238.887 46.4414 240.695C45.3774 242.504 44.8566 244.581 44.9412 246.678C44.8812 252.208 44.8912 257.698 44.8912 263.198L44.8812 263.168ZM243.961 191.218C243.961 185.888 243.871 180.568 243.961 175.218C244.114 173.132 243.638 171.049 242.593 169.237C241.548 167.425 239.983 165.969 238.101 165.058C229.711 160.438 221.241 155.838 213.051 150.838C208.311 147.968 204.051 148.238 199.461 150.838C191.461 155.528 183.461 160.378 175.231 164.718C170.111 167.438 168.051 171.438 168.051 176.838C168.051 186.318 167.981 195.838 168.051 205.278C168.051 210.278 170.051 214.278 174.501 216.898C182.681 221.678 190.831 226.498 199.021 231.268C203.521 233.888 208.021 234.268 212.721 231.538C221.341 226.538 230.041 221.678 238.661 216.678C240.374 215.793 241.792 214.43 242.744 212.754C243.695 211.078 244.139 209.161 244.021 207.238C243.871 201.898 243.971 196.568 243.971 191.248L243.961 191.218Z" fill="#0F9191"/>
<path d="M297.891 119.748C297.891 115.098 297.891 110.438 297.891 105.748C297.891 103.748 298.081 101.418 300.781 101.308C303.481 101.198 303.781 103.458 303.781 105.518C303.821 114.671 303.821 123.824 303.781 132.978C303.781 135.198 303.481 137.868 300.781 137.978C297.331 138.078 297.931 134.918 297.871 132.738C297.741 128.418 297.871 124.088 297.871 119.738L297.891 119.748Z" fill="#0F9191"/>
<path d="M31.9913 405.478C31.9913 410.148 31.9913 414.808 31.9913 419.478C31.9913 421.478 31.8313 423.798 29.1113 423.918C26.3913 424.038 26.0513 421.838 26.0513 419.728C26.0513 410.398 26.0513 401.078 26.0513 391.728C26.0513 389.448 26.7013 386.998 29.5213 387.218C32.1513 387.438 31.9713 389.998 32.0013 391.968C32.0513 396.488 32.0513 400.988 31.9913 405.478Z" fill="#0F9191"/>
<path d="M136.901 119.238C136.901 123.898 136.951 128.558 136.901 133.238C136.901 134.928 136.651 136.858 134.491 137.028C132.161 137.218 131.211 135.398 131.191 133.458C131.078 123.638 131.078 113.818 131.191 103.998C131.191 102.298 131.791 100.438 133.891 100.418C136.281 100.418 136.841 102.418 136.891 104.278C137.011 109.278 136.891 114.278 136.891 119.278L136.901 119.238Z" fill="#0F9191"/>
<path d="M338.051 331.708C338.051 326.878 337.991 322.048 338.051 317.218C338.051 315.288 338.771 313.288 341.051 313.218C343.331 313.148 343.861 315.358 343.881 317.218C343.971 326.708 343.971 336.218 343.941 345.698C343.941 347.638 343.451 349.498 340.941 349.498C338.431 349.498 338.021 347.638 338.001 345.698C337.951 341.038 338.001 336.368 338.001 331.698L338.051 331.708Z" fill="#0F9191"/>
<path d="M14.9513 319.448C14.3712 319.56 13.7698 319.451 13.2662 319.142C12.7625 318.833 12.3932 318.346 12.2313 317.778C11.6613 315.778 12.9513 314.608 14.4213 313.778C20.848 309.978 27.3046 306.218 33.7913 302.498C36.0813 301.188 38.4713 300.028 40.8513 298.878C42.3513 298.158 43.4513 298.978 44.1913 300.188C44.3505 300.438 44.457 300.719 44.5045 301.012C44.5519 301.305 44.5392 301.605 44.4672 301.893C44.3952 302.181 44.2653 302.451 44.0855 302.688C43.9057 302.924 43.6797 303.121 43.4213 303.268C34.4294 309.216 25.0782 314.603 15.4213 319.398C15.2682 319.439 15.1096 319.455 14.9513 319.448Z" fill="#0F9191"/>
<path d="M120.501 444.458C121.071 441.688 122.881 441.228 125.231 442.538C131.911 446.248 138.541 450.048 145.181 453.818C147.181 454.958 149.281 456.018 151.181 457.298C152.541 458.208 154.181 459.388 152.901 461.298C151.811 462.938 149.901 462.828 148.401 462.028C145.161 460.348 142.041 458.448 138.861 456.648C133.648 453.714 128.435 450.794 123.221 447.888C121.891 447.158 120.651 446.388 120.501 444.458Z" fill="#0F9191"/>
<path d="M304.051 417.838C304.741 418.178 305.801 418.638 306.791 419.218C314.571 423.698 322.341 428.184 330.101 432.678C331.801 433.678 333.401 435.008 332.451 437.018C331.251 439.518 329.041 438.498 327.291 437.518C319.031 432.878 310.811 428.158 302.581 423.518C301.171 422.708 300.191 421.648 300.641 419.898C301.051 418.348 302.131 417.708 304.051 417.838Z" fill="#0F9191"/>
<path d="M408.901 229.718C410.141 229.648 411.311 229.918 411.791 231.158C412.591 233.208 411.031 234.358 409.691 235.158C403.031 239.158 396.301 243.058 389.551 246.918C387.542 248.066 385.454 249.069 383.301 249.918C382.691 250.22 381.99 250.286 381.334 250.101C380.678 249.916 380.114 249.495 379.751 248.918C378.841 247.438 379.751 246.298 380.931 245.598C389.911 240.324 398.911 235.091 407.931 229.898C408.242 229.785 408.57 229.724 408.901 229.718Z" fill="#0F9191"/>
<path d="M276.521 245.978C275.851 248.748 273.841 248.818 271.911 247.888C268.911 246.448 266.151 244.628 263.281 242.978C257.701 239.748 252.091 236.558 246.531 233.268C244.911 232.268 243.381 230.868 244.591 228.828C245.801 226.788 247.861 227.368 249.461 228.278C257.641 232.968 265.751 237.768 273.881 242.548C274.563 242.867 275.158 243.345 275.618 243.942C276.077 244.539 276.387 245.237 276.521 245.978Z" fill="#0F9191"/>
<path d="M126.051 84.5977C125.472 84.7001 124.875 84.5813 124.378 84.2646C123.882 83.948 123.523 83.4566 123.371 82.8877C123.127 82.2554 123.132 81.5541 123.384 80.9251C123.637 80.2961 124.118 79.786 124.731 79.4977C128.261 77.3477 131.811 75.1977 135.391 73.1277C140.271 70.2977 145.141 67.4577 150.111 64.8077C151.811 63.8977 154.061 62.8977 155.331 65.3777C156.491 67.6277 154.421 68.6777 152.911 69.5877C145.085 74.2543 137.225 78.8643 129.331 83.4177C128.275 83.9074 127.177 84.3023 126.051 84.5977Z" fill="#0F9191"/>
<path d="M196.671 280.378C196.671 282.378 195.431 283.208 194.101 283.978L169.931 297.978C168.191 298.978 166.301 300.418 164.861 297.788C163.741 295.728 165.071 294.268 166.761 293.268C175.088 288.394 183.441 283.558 191.821 278.758C194.051 277.498 195.991 277.508 196.671 280.378Z" fill="#0F9191"/>
<path d="M299.531 246.388C298.011 246.448 297.031 246.288 296.481 245.278C296.232 244.84 296.133 244.332 296.198 243.832C296.263 243.333 296.489 242.868 296.841 242.508C297.366 241.87 297.995 241.326 298.701 240.898C306.701 236.231 314.738 231.584 322.811 226.958C324.561 225.958 326.581 224.788 327.961 227.268C329.341 229.748 327.461 230.878 325.631 231.918C317.991 236.258 310.371 240.618 302.721 244.918C301.684 245.462 300.619 245.953 299.531 246.388Z" fill="#0F9191"/>
<path d="M299.391 277.748C301.391 278.698 303.821 279.688 306.091 281.008C312.524 284.761 318.904 288.594 325.231 292.508C326.931 293.558 329.681 294.558 328.161 297.328C326.641 300.098 324.081 298.258 322.491 297.378C314.241 292.828 306.141 288.008 298.021 283.228C297.329 282.917 296.769 282.37 296.441 281.685C296.114 281.001 296.039 280.222 296.231 279.488C296.581 278.178 297.611 277.718 299.391 277.748Z" fill="#0F9191"/>
<path d="M155.961 191.238C155.961 196.048 155.961 200.868 155.961 205.678C155.961 207.408 155.631 209.198 153.471 209.348C151.311 209.498 150.121 207.928 150.111 205.888C150.045 195.928 150.045 185.968 150.111 176.008C150.111 174.308 150.851 172.488 152.891 172.458C155.241 172.458 155.891 174.398 155.891 176.298C156.001 181.298 155.891 186.298 155.891 191.238H155.961Z" fill="#0F9191"/>
<path d="M95.2513 175.488C93.7113 175.488 92.7813 175.158 92.4413 174.068C91.8413 172.068 92.9513 170.868 94.4413 169.968C99.6947 166.828 104.975 163.724 110.281 160.658C113.431 158.838 116.641 157.098 119.821 155.318C121.521 154.318 123.151 154.548 124.171 156.198C125.301 158.058 124.111 159.308 122.541 160.198C114.215 165.031 105.905 169.844 97.6113 174.638C96.8574 175.005 96.0662 175.29 95.2513 175.488Z" fill="#0F9191"/>
<path d="M279.881 405.618C279.881 410.258 279.881 414.908 279.881 419.558C279.881 421.428 279.641 423.448 277.091 423.418C274.721 423.418 274.091 421.528 274.091 419.608C274.018 410.161 274.018 400.704 274.091 391.238C274.091 389.238 274.611 386.868 277.271 387.058C279.931 387.248 279.891 389.678 279.911 391.668C279.921 396.318 279.881 400.968 279.881 405.618Z" fill="#0F9191"/>
<path d="M248.451 439.088C247.931 441.768 245.951 442.088 243.921 441.318C241.457 440.317 239.08 439.116 236.811 437.728C230.631 434.138 224.491 430.478 218.361 426.798C216.801 425.858 214.741 424.798 215.701 422.628C216.791 420.218 219.171 420.928 220.941 421.848C225.511 424.218 230.001 426.738 234.441 429.348C237.881 431.348 241.151 433.668 244.861 435.228C246.551 435.938 248.151 436.898 248.451 439.088Z" fill="#0F9191"/>
<path d="M155.971 334.108C155.971 338.598 156.021 343.108 155.971 347.588C155.971 349.588 156.031 351.998 153.261 352.098C150.661 352.188 150.041 350.098 150.031 347.928C150.031 338.448 150.031 328.928 150.031 319.478C150.031 317.398 150.741 315.208 153.371 315.418C155.701 315.608 155.911 317.738 155.931 319.638C155.991 324.458 155.971 329.288 155.971 334.108Z" fill="#0F9191"/>
<path d="M120.231 369.708C118.994 369.327 117.79 368.845 116.631 368.268C109.438 364.108 102.278 359.891 95.1514 355.618C93.5014 354.618 91.0514 353.618 92.1514 351.188C93.4014 348.488 95.8714 349.568 97.7614 350.638C105.991 355.298 114.161 360.058 122.331 364.828C123.631 365.578 125.021 366.508 124.261 368.358C123.651 369.898 122.171 369.718 120.231 369.708Z" fill="#0F9191"/>
<path d="M114.621 279.968C114.695 280.71 114.544 281.456 114.187 282.111C113.831 282.766 113.285 283.298 112.621 283.638C103.955 288.518 95.308 293.384 86.6813 298.238C85.2313 299.048 83.5913 300.128 82.4313 297.978C81.4313 296.058 82.1713 294.338 83.9313 293.308C92.5013 288.308 101.091 283.308 109.731 278.438C111.921 277.178 113.811 277.778 114.621 279.968Z" fill="#0F9191"/>
<path d="M114.491 244.358C113.791 247.448 111.711 247.578 109.301 246.258C103.651 243.148 98.0614 239.928 92.4714 236.708C89.6014 235.058 86.7514 233.368 83.9714 231.568C82.2914 230.478 81.2814 228.838 82.5014 226.928C83.6014 225.218 85.0914 226.198 86.5014 226.868C95.4214 231.248 103.891 236.428 112.371 241.588C112.924 241.841 113.407 242.226 113.776 242.709C114.146 243.192 114.391 243.758 114.491 244.358Z" fill="#0F9191"/>
<path d="M232.911 190.718C232.911 186.058 232.841 181.398 232.911 176.718C232.961 174.718 233.361 172.348 236.031 172.468C238.271 172.578 238.781 174.698 238.801 176.588C238.861 186.081 238.861 195.571 238.801 205.058C238.801 207.158 238.361 209.318 235.631 209.208C233.221 209.118 232.891 207.088 232.871 205.208C232.871 200.378 232.901 195.548 232.911 190.718Z" fill="#0F9191"/>
<path d="M178.451 206.718C187.631 211.918 197.621 216.788 206.531 223.488C206.76 223.675 206.943 223.911 207.07 224.178C207.196 224.446 207.261 224.737 207.261 225.033C207.261 225.328 207.196 225.62 207.07 225.887C206.943 226.154 206.76 226.39 206.531 226.578C205.101 227.988 203.441 227.658 201.921 226.808C196.001 223.468 190.101 220.068 184.211 216.668C181.481 215.088 178.761 213.508 176.091 211.838C174.931 211.098 174.031 209.998 174.541 208.488C175.051 206.978 176.411 206.778 178.451 206.718Z" fill="#0F9191"/>
<path d="M207.411 156.968C207.411 158.728 206.211 159.488 205.081 160.148C196.621 165.088 188.148 169.994 179.661 174.868C177.971 175.868 175.981 176.138 174.811 174.168C173.541 172.028 175.241 170.728 176.811 169.798C185.131 164.958 193.465 160.168 201.811 155.428C204.241 154.078 206.311 154.178 207.411 156.968Z" fill="#0F9191"/>
</svg>
