<svg width="977" height="472" viewBox="0 0 977 472" fill="none" xmlns="http://www.w3.org/2000/svg">
<path d="M16.1979 122.43C16.1979 129.43 16.2479 136.43 16.1979 143.43C16.1979 145.94 16.7179 147.94 19.0779 149.31C30.1479 155.73 41.1679 162.24 52.2179 168.68C54.2179 169.86 56.0979 169.68 58.2179 168.35C67.6179 162.67 77.2179 157.3 86.6279 151.65C93.2279 147.65 99.5479 147.32 106.318 151.46C116.108 157.46 126.228 162.93 136.018 168.93C136.893 169.555 137.942 169.892 139.018 169.892C140.094 169.892 141.143 169.555 142.018 168.93C153.388 162.34 164.708 155.66 176.068 149.05C178.198 147.81 178.868 146.17 178.708 143.67C177.827 130.711 177.83 117.708 178.718 104.75C178.868 102.75 178.538 101.54 176.468 100.42C165.648 94.59 154.968 88.48 144.218 82.5C138.528 79.32 136.118 74.21 136.028 68.01C135.878 56.85 135.948 45.68 136.028 34.51C136.028 29.62 137.498 25.08 141.698 22.31C153.198 14.72 164.698 7.18998 177.488 1.72998C182.718 -0.500018 187.048 1.65998 191.118 4.01998C201.478 10.02 212.258 15.3 222.018 22.31C223.618 23.46 224.808 23.24 226.488 22.21C236.118 16.27 245.868 10.54 255.558 4.68999C263.258 0.0399885 270.738 0.199976 278.428 4.98998C286.898 10.25 295.608 15.14 304.228 20.16C306.869 21.6208 309.07 23.7638 310.6 26.3654C312.13 28.967 312.934 31.9317 312.928 34.95C313.238 45.6 313.118 56.28 312.978 66.95C312.888 73.32 310.378 78.5 304.758 82.02C294.178 88.65 283.498 95.11 272.198 100.44C269.928 101.51 269.368 102.75 269.528 105.03C270.448 117.99 270.448 131 269.528 143.96C269.376 144.94 269.547 145.942 270.014 146.817C270.481 147.691 271.219 148.391 272.118 148.81C283.318 155.35 294.438 162.02 305.638 168.56C307.998 169.94 310.348 169.4 312.708 168.01C320.168 163.62 328.168 160.01 335.128 154.96C345.408 147.5 354.778 148.11 364.778 155.18C373.318 161.18 383.368 164.86 391.488 171.63C391.687 171.841 391.926 172.01 392.191 172.127C392.456 172.244 392.742 172.307 393.032 172.312C393.322 172.316 393.61 172.263 393.879 172.154C394.148 172.046 394.392 171.885 394.598 171.68C404.978 163.46 416.978 157.92 428.348 151.35C431.248 149.68 432.238 147.8 432.208 144.63C432.095 131.797 432.095 118.963 432.208 106.13C432.208 102.94 431.208 101.03 428.278 99.44C419.058 94.44 410.058 89.1 400.928 83.96C392.768 79.36 388.768 72.57 389.048 63.07C389.318 54.41 389.048 45.74 389.138 37.07C389.228 28.4 392.378 21.72 400.478 17.46C408.578 13.2 416.348 8.33998 424.218 3.64998C431.688 -0.81002 439.068 -1.43002 446.798 3.16998C455.668 8.43998 464.748 13.35 473.668 18.54C476.092 19.848 478.152 21.7401 479.661 24.045C481.169 26.3499 482.079 28.9947 482.308 31.74C483.628 43.39 482.868 55.04 482.908 66.69C482.908 74.06 479.078 79.36 472.978 82.96C463.378 88.63 453.698 94.17 443.898 99.46C440.948 101.05 439.898 102.94 439.958 106.13C440.078 118.97 440.078 131.803 439.958 144.63C439.958 147.79 440.858 149.72 443.848 151.32C452.948 156.18 461.768 161.55 470.788 166.55C479.328 171.29 483.608 178.19 483.068 188.15C482.488 198.95 483.828 209.8 482.248 220.59C481.948 222.65 482.818 223.95 484.698 224.99C495.448 230.94 506.248 236.84 516.808 243.13C521.638 246 525.228 250.13 525.558 256.31C526.238 269.12 526.558 281.92 525.358 294.72C525.191 297.059 524.444 299.319 523.183 301.295C521.922 303.272 520.188 304.903 518.138 306.04C507.878 312.23 497.808 318.78 486.948 323.88C482.878 325.79 482.128 327.95 482.528 332.34C483.5 343.969 483.526 355.657 482.608 367.29C482.348 371 482.968 373.29 486.168 375.09C497.015 381.27 507.818 387.527 518.578 393.86C519.691 394.593 520.997 394.977 522.33 394.963C523.663 394.949 524.961 394.537 526.058 393.78C536.811 387.42 547.581 381.107 558.368 374.84C561.218 373.19 562.008 370.84 561.978 367.78C561.868 357.28 562.178 346.78 561.858 336.29C561.618 328.38 564.858 322.9 571.588 319.08C580.978 313.71 590.258 308.14 599.758 302.97C602.228 301.62 603.078 300.11 603.058 297.53C603.005 284.53 603.005 271.53 603.058 258.53C603.058 255.39 602.008 253.47 598.998 251.9C589.998 247.21 581.158 242.2 572.408 237.05C566.408 233.55 562.028 228.88 561.648 221.3C561.058 209.65 560.568 198.01 561.928 186.39C562.178 183.975 563.021 181.658 564.382 179.647C565.743 177.636 567.579 175.991 569.728 174.86C578.638 169.66 587.448 164.27 596.318 158.99C603.098 154.99 609.938 155.16 616.678 158.99C625.338 163.99 634.008 168.9 642.508 174.11C648.048 177.51 651.428 182.18 651.168 189.3C650.798 199.78 651.018 210.3 651.088 220.79C651.138 227.41 648.328 232.16 642.648 235.57C632.938 241.39 623.268 247.29 613.128 252.33C612.131 252.727 611.289 253.435 610.725 254.348C610.162 255.261 609.907 256.331 609.998 257.4C609.998 270.9 609.998 284.4 609.998 297.9C609.998 300.32 610.918 301.75 613.138 302.99C623.871 308.99 634.538 315.143 645.138 321.45C647.438 322.82 648.928 322.91 651.358 321.45C661.448 315.32 671.718 309.45 682.018 303.69C687.738 300.47 693.438 300.94 699.078 304.32C708.788 310.14 718.648 315.69 728.328 321.57C730.458 322.87 731.918 322.45 733.768 321.39C744.161 315.43 754.581 309.51 765.028 303.63C767.578 302.2 768.178 300.07 768.158 297.37C768.078 287.03 768.508 276.68 767.978 266.37C767.548 258 770.978 252.13 777.758 248.09C787.048 242.57 796.458 237.2 806.038 232.19C808.269 231.011 810.766 230.424 813.289 230.485C815.812 230.546 818.277 231.254 820.448 232.54C830.178 237.97 839.938 243.37 849.448 249.08C852.318 250.8 854.568 250.77 857.288 249.2C866.948 243.64 876.668 238.2 886.358 232.66C887.857 231.929 889.104 230.766 889.938 229.321C890.772 227.876 891.155 226.214 891.038 224.55C890.865 212.55 890.865 200.55 891.038 188.55C891.098 184.55 889.618 182.06 886.158 180.14C877.158 175.14 868.268 169.84 859.318 164.7C852.208 160.63 848.478 154.94 848.888 146.35C849.379 136.69 849.379 127.01 848.888 117.35C848.408 108.42 852.708 102.87 859.788 98.71C867.958 93.9 876.308 89.38 884.338 84.36C894.468 78.02 903.058 82.19 911.738 87.53C917.818 91.27 923.938 94.99 930.248 98.32C938.248 102.56 942.368 108.81 942.138 118C941.938 126 941.498 134.05 942.238 142C943.438 155 937.018 162.55 926.238 168.07C917.368 172.63 908.828 177.81 900.048 182.53C897.278 184.02 897.118 186.24 897.128 188.82C897.128 201.82 897.038 214.82 897.198 227.82C897.198 231.75 895.998 234.25 892.418 236.22C881.778 242.08 871.418 248.37 860.788 254.32C857.788 256.03 857.018 257.87 857.378 261.49C858.588 273.6 858.068 285.78 857.658 297.93C857.568 300.57 857.838 302.37 860.248 303.74C869.075 308.753 877.868 313.833 886.628 318.98C889.838 320.89 892.208 320.73 895.578 318.56C905.078 312.43 914.948 306.85 924.828 301.36C930.198 298.36 935.768 299.05 941.038 302.09C949.678 307.09 958.268 312.18 966.958 317.09C972.958 320.47 976.408 324.89 976.158 332.27C975.758 343.76 975.938 355.27 976.098 366.77C976.168 372.36 973.928 376.33 969.098 379.05C958.378 385.05 947.788 391.39 936.918 397.16C933.968 398.72 934.918 400.49 935.138 402.49C936.401 414.917 936.425 427.439 935.208 439.87C934.688 445.54 931.518 449.4 926.808 452.12C917.008 457.78 907.238 463.48 897.308 468.88C894.973 470.206 892.33 470.893 889.645 470.87C886.961 470.847 884.329 470.116 882.018 468.75C872.438 463.36 862.958 457.8 853.458 452.29C847.668 448.92 844.628 444.17 844.848 437.15C845.335 427.325 845.311 417.482 844.778 407.66C844.098 398.23 848.778 392.54 856.008 388.18C864.428 383.18 873.008 378.35 881.518 373.49C882.52 372.902 883.622 372.503 884.768 372.31C887.348 371.94 887.968 370.55 887.698 368.11C886.318 355.66 886.968 343.11 887.338 330.69C887.418 328 886.968 326.33 884.568 324.97C875.158 319.65 865.798 314.21 856.458 308.75C854.298 307.5 852.588 307.86 850.458 309.12C841.588 314.39 832.458 319.21 823.678 324.65C815.908 329.47 808.558 328.72 801.108 324.34C792.358 319.21 783.578 314.1 774.908 308.83C772.798 307.56 770.978 307.33 768.908 308.54C758.241 314.68 747.548 320.8 736.828 326.9C734.208 328.39 733.828 330.7 734.168 333.33C735.628 343.28 734.738 353.33 734.928 363.28C735.068 371.42 731.828 377.82 724.658 381.98C715.018 387.58 705.478 393.37 695.658 398.62C692.658 400.23 692.338 401.81 692.508 404.84C693.198 417.14 693.578 429.47 692.258 441.76C692.087 444.018 691.351 446.198 690.12 448.099C688.888 449.999 687.199 451.561 685.208 452.64C674.098 458.96 663.568 466.28 651.578 471.04C646.818 472.93 642.968 470.96 639.338 469.04C630.228 464.23 621.388 458.88 612.488 453.68C606.028 449.91 602.758 444.28 603.018 436.74C603.408 425.1 602.118 413.42 603.778 401.82C603.988 400.33 603.418 399.88 602.168 399.28C591.168 394.08 580.978 387.46 570.668 381.08C566.938 378.78 564.038 378.5 560.228 380.86C550.468 386.86 540.528 392.66 530.508 398.26C527.098 400.16 525.938 402.61 525.968 406.32C526.078 418.65 525.968 430.98 525.968 443.32C526.106 445.653 525.849 447.993 525.208 450.24C524.748 451.56 524.068 452.78 522.508 452.81C521.742 452.823 520.999 452.553 520.421 452.05C519.843 451.548 519.472 450.85 519.378 450.09C519.061 448.443 518.917 446.767 518.948 445.09C518.948 432.26 518.848 419.43 518.948 406.6C518.948 403.2 517.808 400.95 514.878 399.26C503.918 392.967 492.998 386.603 482.118 380.17C479.488 378.62 477.648 378.89 474.958 380.59C464.828 386.97 454.528 393.12 443.958 398.8C440.668 400.57 439.808 402.53 439.828 405.8C439.898 418.47 439.918 431.14 439.828 443.8C439.828 447.17 440.468 452.22 436.028 452.28C431.588 452.34 432.088 447.34 432.028 443.95C431.938 431.28 431.868 418.62 432.028 405.95C432.088 402.07 430.638 400.04 427.238 398.22C418.148 393.35 409.458 387.73 400.328 382.94C392.238 378.69 388.828 371.94 388.988 363.39C389.208 351.76 387.738 340.07 389.938 328.5C390.298 326.59 389.268 325.86 387.738 325.17C376.938 320.3 367.308 313.3 356.798 307.89C349.638 304.21 346.198 298.24 346.088 290.58C345.928 278.77 345.178 266.93 346.618 255.14C346.918 252.68 346.358 251.35 343.948 250.06C333.408 244.38 323.048 238.35 312.598 232.49C306.008 228.8 302.698 223.17 302.948 215.68C303.358 203.05 301.608 190.36 304.138 177.8C304.558 175.72 303.748 174.51 301.828 173.42C291.248 167.46 280.728 161.387 270.268 155.2C269.124 154.387 267.756 153.951 266.353 153.951C264.95 153.951 263.582 154.387 262.438 155.2C252.758 161.06 242.908 166.64 233.188 172.44C226.628 176.36 220.388 175.94 213.948 172.04C204.558 166.36 194.948 161.04 185.568 155.32C184.427 154.496 183.061 154.042 181.653 154.018C180.246 153.995 178.865 154.404 177.698 155.19C166.785 161.57 155.871 167.94 144.958 174.3C142.688 175.62 141.858 177.43 141.878 180.06C141.978 192.56 141.958 205.06 141.878 217.56C141.878 219.93 142.438 221.56 144.708 222.84C156.318 229.35 167.888 235.93 179.348 242.7C181.868 244.19 183.468 242.9 185.258 241.87C196.258 235.58 207.128 229.12 218.188 222.98C220.588 221.65 223.968 217.98 226.268 222.26C228.268 226 223.688 227.09 221.428 228.44C210.848 234.727 200.165 240.827 189.378 246.74C185.978 248.59 184.748 250.83 184.798 254.65C184.998 267.65 184.878 280.65 184.798 293.65C184.798 296.04 185.338 299.23 181.578 299.21C178.098 299.21 177.998 296.21 177.988 293.69C177.918 280.86 177.828 268.02 177.988 255.19C178.038 251.26 176.868 248.61 173.338 246.66C162.558 240.66 151.878 234.57 141.218 228.42C140.432 227.85 139.484 227.548 138.513 227.559C137.542 227.569 136.601 227.892 135.828 228.48C125.558 234.64 115.138 240.55 104.738 246.48C102.377 247.935 99.6713 248.733 96.8991 248.793C94.1269 248.853 91.3889 248.172 88.9679 246.82C78.8679 241.38 68.9079 235.68 58.9679 229.88C53.1679 226.48 50.5679 221.1 50.6279 214.4C50.7379 202.4 50.6279 190.4 51.0079 178.4C51.1079 175.01 48.8079 174.06 46.8279 172.89C36.2279 166.64 25.5979 160.42 14.8279 154.51C11.3179 152.59 9.61787 150.28 9.63787 146.29C9.72787 131.29 9.63787 116.29 9.63787 101.29C9.63787 100.79 9.63787 100.29 9.68787 99.79C9.83787 97.59 10.5279 95.68 13.1179 95.79C15.7079 95.9 15.8079 97.96 15.8179 99.79C15.8679 107.29 15.8179 114.79 15.8179 122.29L16.1979 122.43ZM476.018 50.73C476.018 46.56 475.728 42.37 476.078 38.24C476.778 30.14 473.078 25.14 466.078 21.54C458.398 17.54 450.938 13.17 443.558 8.66998C438.788 5.76998 434.278 5.56999 429.498 8.35999C421.018 13.3 412.628 18.36 403.958 22.99C398.738 25.75 396.328 29.82 396.248 35.38C396.108 45.38 396.168 55.38 396.248 65.38C396.248 71.18 398.788 75.46 404.008 78.33C412.008 82.7167 419.941 87.2733 427.808 92C433.178 95.25 438.378 95.48 443.808 92.38C451.608 87.92 459.288 83.25 467.228 79.05C473.758 75.59 476.588 70.53 476.098 63.23C475.788 59.12 476.018 54.89 476.018 50.73ZM856.018 131.15C856.018 137.15 856.018 143.15 856.018 149.15C855.935 150.911 856.334 152.662 857.173 154.213C858.012 155.763 859.258 157.056 860.778 157.95C869.888 163.44 879.078 168.79 888.258 174.17C892.938 176.92 897.548 177.17 902.378 174.23C911.168 168.86 920.058 163.65 928.988 158.5C933.358 155.98 935.218 152.31 935.188 147.39C935.128 137.07 935.088 126.75 935.188 116.39C935.307 114.13 934.774 111.884 933.651 109.92C932.529 107.955 930.865 106.355 928.858 105.31C919.528 99.9 910.128 94.59 900.858 89.12C897.348 87.06 894.098 87.12 890.478 88.87C880.138 93.87 870.668 100.43 860.578 105.87C859.085 106.645 857.853 107.843 857.037 109.313C856.221 110.784 855.856 112.463 855.988 114.14C856.118 119.83 856.018 125.5 856.028 131.12L856.018 131.15ZM432.158 274.99C432.158 269.99 431.828 264.99 432.238 259.99C432.758 253.77 429.848 250.04 424.738 247.2C416.618 242.68 408.571 238.033 400.598 233.26C395.718 230.33 391.068 229.93 386.068 232.93C377.518 238.06 368.968 243.19 360.228 247.93C358.047 248.986 356.218 250.651 354.961 252.723C353.705 254.796 353.075 257.188 353.148 259.61C353.018 269.76 352.988 279.91 353.148 290.05C353.218 294.26 354.088 298.46 358.148 300.9C368.248 306.9 378.258 313.18 388.838 318.41C390.176 319.114 391.67 319.469 393.182 319.443C394.694 319.416 396.175 319.01 397.488 318.26C407.718 312.63 417.918 307.12 427.718 300.74C429.166 299.918 430.355 298.706 431.151 297.243C431.946 295.779 432.316 294.123 432.218 292.46C432.078 286.64 432.158 280.81 432.158 274.99ZM221.028 50.87C221.028 46.21 220.928 41.54 221.028 36.87C221.198 31.06 218.408 26.87 213.698 24.12C204.958 18.98 196.028 14.12 187.178 9.18999C185.541 8.16359 183.654 7.60755 181.723 7.58286C179.791 7.55816 177.89 8.06575 176.228 9.04997C167.118 14.22 158.068 19.49 149.008 24.74C144.248 27.5 142.088 31.74 142.118 37.17C142.118 46.33 142.228 55.49 142.118 64.64C142.018 71.64 145.318 76.23 151.298 79.38C158.498 83.17 165.668 87 172.508 91.47C178.568 95.47 184.708 95.62 191.148 91.47C198.148 86.95 205.448 82.98 212.778 79.07C218.198 76.18 220.918 71.9 220.988 65.87C221.068 60.86 221.028 55.86 221.028 50.87ZM476.028 349.41H475.978C475.978 344.41 476.028 339.41 475.978 334.41C475.908 329.15 473.638 325.33 468.898 322.7C460.018 317.8 451.238 312.727 442.558 307.48C438.378 304.97 434.458 304.9 430.328 307.28C420.958 312.68 411.558 318.02 402.218 323.46C398.088 325.86 396.328 329.77 396.278 334.35C396.168 344.17 396.278 353.99 396.278 363.82C396.278 370.46 399.348 374.99 405.218 378.16C412.218 381.94 418.948 386.28 425.818 390.33C431.248 393.54 436.678 396.18 443.058 392.33C450.998 387.49 459.058 382.77 467.178 378.28C473.178 374.98 476.378 370.4 476.078 363.41C475.858 358.74 476.018 354.12 476.018 349.41H476.028ZM475.978 201.91C475.978 194.86 475.978 189.69 475.978 184.53C476.047 182.267 475.479 180.031 474.339 178.075C473.198 176.12 471.531 174.524 469.528 173.47C460.888 168.47 452.288 163.4 443.658 158.4C438.448 155.4 433.308 155.55 428.118 158.66C420.268 163.36 412.468 168.16 404.388 172.44C398.878 175.36 396.278 179.59 396.248 185.6C396.248 195.43 396.158 205.26 396.248 215.08C396.248 220.19 398.028 224.48 402.808 227.17C412.228 232.47 421.538 237.98 431.008 243.17C432.691 244.128 434.601 244.614 436.537 244.577C438.473 244.54 440.363 243.982 442.008 242.96C451.668 237.4 461.268 231.74 470.908 226.16C472.148 225.484 473.209 224.521 474.002 223.352C474.795 222.184 475.298 220.842 475.468 219.44C476.518 212.99 475.718 206.5 475.968 201.91H475.978ZM440.058 274.91C440.058 280.24 440.188 285.57 440.058 290.91C439.88 293.08 440.345 295.254 441.396 297.161C442.448 299.068 444.038 300.622 445.968 301.63C455.458 307.13 464.888 312.73 474.448 318.11C478.208 320.23 482.068 319.8 485.808 317.56C494.378 312.46 502.948 307.35 511.638 302.45C516.278 299.84 518.938 296.16 518.988 290.87C519.088 280.22 519.128 269.57 518.988 258.92C518.928 254.61 517.518 250.86 513.328 248.51C504.178 243.4 495.148 238.09 486.078 232.85C481.698 230.31 477.428 230.06 472.898 232.76C463.898 238.13 454.768 243.25 445.708 248.51C443.944 249.481 442.487 250.927 441.502 252.684C440.518 254.441 440.045 256.438 440.138 258.45C440.038 263.95 440.048 269.45 440.048 274.94L440.058 274.91ZM57.2179 198.44C57.2179 203.44 57.3579 208.44 57.2179 213.44C57.0179 218.88 59.3979 222.66 63.9779 225.3C72.3179 230.11 80.7779 234.75 88.9779 239.85C94.3479 243.2 99.2179 242.85 104.398 239.75C112.398 235 120.398 230.16 128.638 225.85C133.758 223.18 135.878 219.13 135.958 213.8C136.111 203.653 136.111 193.5 135.958 183.34C135.888 178.17 133.628 174.34 128.788 171.71C120.448 167.23 112.208 162.51 104.228 157.41C99.2279 154.22 94.7979 154.02 89.8379 157C81.1379 162.21 72.5779 167.65 63.6079 172.42C61.4858 173.461 59.7337 175.127 58.5876 177.193C57.4415 179.26 56.9565 181.629 57.1979 183.98C57.4479 188.79 57.1979 193.64 57.2079 198.47L57.2179 198.44ZM263.098 125.24V108.24C263.138 106.229 262.61 104.248 261.575 102.524C260.54 100.799 259.041 99.4011 257.248 98.49C248.608 93.49 239.898 88.64 231.298 83.59C226.548 80.8 222.018 80.59 217.218 83.49C208.638 88.66 200.008 93.65 191.348 98.6C189.345 99.6239 187.685 101.21 186.571 103.164C185.457 105.118 184.938 107.355 185.078 109.6C185.208 118.6 185.608 127.6 184.968 136.6C184.348 145.24 188.188 150.36 195.398 154.04C202.833 157.744 210.051 161.867 217.018 166.39C221.018 169.08 225.248 170.16 230.018 167.24C238.948 161.78 248.198 156.84 257.208 151.5C261.148 149.16 263.398 145.71 263.138 140.75C262.878 135.61 263.088 130.43 263.088 125.27L263.098 125.24ZM686.098 422.55C686.098 417.89 685.838 413.2 686.168 408.55C686.608 402.15 683.498 398.3 678.168 395.42C670.578 391.3 663.028 387.09 655.638 382.61C650.638 379.61 646.008 379.61 641.098 382.46C632.768 387.36 624.458 392.28 616.028 396.97C611.728 399.35 609.928 402.76 609.978 407.56C610.078 417.39 610.118 427.22 609.978 437.05C609.898 442.26 611.978 446 616.428 448.58C624.918 453.5 633.328 458.58 641.908 463.34C645.348 465.25 649.338 465.84 652.968 463.88C662.628 458.66 672.368 453.56 681.488 447.4C682.982 446.473 684.2 445.162 685.015 443.603C685.829 442.045 686.21 440.296 686.118 438.54C685.988 433.25 686.078 427.92 686.088 422.58L686.098 422.55ZM851.258 420.97C851.258 426.13 851.258 431.29 851.258 436.45C851.138 438.706 851.679 440.948 852.814 442.902C853.949 444.856 855.629 446.436 857.648 447.45C866.208 452.23 874.698 457.14 883.118 462.18C887.758 464.97 892.118 464.93 896.728 462.25C904.728 457.56 912.788 452.86 920.968 448.43C926.368 445.5 928.968 441.14 929.048 435.14C929.108 425.993 929.108 416.84 929.048 407.68C929.048 400.9 925.978 396.24 919.718 393.13C912.414 389.529 905.32 385.52 898.468 381.12C892.698 377.39 887.338 377.55 881.698 380.87C873.698 385.59 865.698 390.38 857.618 395.01C855.68 396.002 854.058 397.517 852.936 399.384C851.813 401.25 851.236 403.393 851.268 405.57C851.178 410.68 851.248 415.84 851.248 421L851.258 420.97ZM389.108 200.92C389.108 195.08 389.108 189.25 389.108 183.42C389.108 179.42 387.718 176.08 384.308 174.08C374.698 168.43 365.038 162.86 355.238 157.56C353.395 156.557 351.317 156.065 349.22 156.134C347.123 156.202 345.082 156.829 343.308 157.95C334.668 162.95 326.128 168.16 317.308 172.85C312.208 175.56 310.168 179.63 310.118 184.98C310.028 195.48 310.118 205.98 310.118 216.48C310.118 220.76 311.668 224.19 315.578 226.48C323.798 231.21 332.088 235.83 340.058 240.95C346.168 244.88 351.858 245.51 358.208 241.64C366.588 236.52 375.208 231.82 383.678 226.83C387.168 224.77 389.308 221.83 389.158 217.45C388.968 211.92 389.108 206.42 389.108 200.92ZM306.048 50.92C306.048 45.43 306.048 39.92 306.048 34.45C306.115 32.6873 305.701 30.9396 304.85 29.3945C303.999 27.8493 302.744 26.5652 301.218 25.68C291.748 20.17 282.218 14.78 272.648 9.40997C270.85 8.3191 268.788 7.7406 266.686 7.73708C264.583 7.73355 262.519 8.30514 260.718 9.38999C251.608 14.54 242.618 19.9 233.508 25.04C229.598 27.25 227.938 30.36 228.008 34.83C228.158 44.64 228.548 54.49 227.888 64.26C227.378 71.74 230.498 76.04 236.638 79.4C244.638 83.79 252.318 88.76 260.308 93.16C262.206 94.2345 264.347 94.8084 266.529 94.8276C268.71 94.8469 270.861 94.3108 272.778 93.27C281.988 88.27 290.938 82.85 300.008 77.63C301.925 76.6075 303.509 75.0573 304.572 73.1628C305.635 71.2683 306.134 69.1089 306.008 66.94C306.028 61.62 306.048 56.29 306.048 50.97V50.92ZM775.048 278.92C775.048 283.92 775.308 288.92 774.978 293.92C774.598 299.69 777.108 303.31 781.978 306C790.128 310.51 798.078 315.39 806.208 319.93C808.162 321.076 810.387 321.68 812.653 321.68C814.919 321.68 817.143 321.076 819.098 319.93C827.678 315.17 836.098 310.17 844.638 305.29C846.728 304.23 848.459 302.578 849.615 300.54C850.771 298.501 851.301 296.168 851.138 293.83C850.948 284.5 850.838 275.16 851.138 265.83C851.378 259.24 848.218 255.29 842.858 252.29C835.018 247.91 827.278 243.36 819.518 238.85C817.734 237.733 815.691 237.097 813.589 237.002C811.486 236.908 809.395 237.358 807.518 238.31C798.108 243.31 789.018 248.87 779.818 254.24C776.318 256.24 774.818 259.32 774.958 263.4C775.138 268.59 775.018 273.76 775.008 278.93L775.048 278.92ZM644.168 205.2C644.168 200.04 643.918 194.86 644.238 189.71C644.558 184.56 642.338 181.19 638.018 178.71C629.338 173.79 620.748 168.71 612.078 163.79C610.432 162.78 608.539 162.246 606.608 162.246C604.677 162.246 602.784 162.78 601.138 163.79C592.488 168.79 583.978 173.99 575.258 178.85C570.128 181.72 568.098 185.85 568.168 191.57C568.268 200.4 568.428 209.25 568.118 218.07C567.908 223.92 570.208 228.07 575.008 230.96C583.588 236.07 592.258 241.01 600.888 246.01C604.588 248.15 608.168 248.59 612.108 246.19C621.208 240.65 630.448 235.36 639.648 230C641.121 229.199 642.332 227.989 643.136 226.517C643.939 225.045 644.301 223.373 644.178 221.7C644.098 216.21 644.158 210.7 644.168 205.2ZM644.168 350.83C644.168 345.18 644.168 339.52 644.168 333.83C644.168 330.24 642.938 327.35 639.738 325.48C631.138 320.48 622.468 315.48 613.958 310.34C608.828 307.22 604.088 307.34 598.958 310.48C591.008 315.32 582.898 319.88 574.818 324.48C570.588 326.9 568.138 330.32 568.158 335.35C568.198 345.67 568.198 355.987 568.158 366.3C568.158 370.78 570.278 373.87 573.998 376.03C582.768 381.12 591.608 386.09 600.298 391.3C604.298 393.69 608.078 393.81 612.048 391.54C620.998 386.44 629.988 381.4 638.908 376.23C640.613 375.332 642.019 373.956 642.951 372.27C643.884 370.584 644.304 368.661 644.158 366.74C644.038 361.48 644.158 356.12 644.158 350.83H644.168ZM651.168 350.15C651.168 355.31 651.168 360.47 651.168 365.64C651.218 369.64 652.478 373.35 656.078 375.48C665.528 381.05 675.078 386.41 684.648 391.83C687.908 393.69 691.378 394.01 694.648 392.15C703.648 387.06 712.488 381.82 721.368 376.58C725.528 374.13 727.948 370.49 727.978 365.58C727.978 355.76 728.128 345.93 727.918 336.11C727.818 331.89 726.768 327.72 722.688 325.37C713.478 320.04 704.188 314.88 694.978 309.56C693.355 308.533 691.47 307.996 689.55 308.012C687.629 308.028 685.754 308.597 684.148 309.65C675.078 314.91 665.898 319.97 656.848 325.25C655.083 326.231 653.62 327.675 652.617 329.427C651.615 331.179 651.11 333.172 651.158 335.19C651.098 340.12 651.138 345.12 651.138 350.12L651.168 350.15ZM970.978 348.71C970.978 344.21 971.108 339.71 970.978 335.22C970.778 329.76 968.788 325.35 963.638 322.53C955.328 317.98 947.158 313.17 938.978 308.37C936.998 307.109 934.7 306.439 932.353 306.439C930.006 306.439 927.707 307.109 925.728 308.37C917.508 313.07 909.288 317.76 901.098 322.52C896.988 324.91 894.158 328.17 894.168 333.28C894.168 343.44 894.098 353.6 894.168 363.75C894.168 367.91 895.478 371.63 899.398 373.9C908.588 379.24 917.728 384.68 926.998 389.9C928.81 390.956 930.884 391.477 932.98 391.4C935.076 391.324 937.107 390.655 938.838 389.47C942.658 387.11 946.578 384.93 950.458 382.68C970.968 370.77 970.968 370.78 970.948 348.71H970.978Z" fill="#0F9191"/>
<path d="M429.048 423.82C429.048 428.82 429.048 433.82 429.048 438.77C429.048 441.08 428.368 443.49 425.698 443.46C423.028 443.43 422.208 441.23 422.208 438.82C422.208 428.82 422.208 418.89 422.208 408.92C422.208 406.61 422.788 404.44 425.678 404.4C428.568 404.36 429.058 406.55 429.068 408.87C429.068 413.87 429.068 418.87 429.068 423.87L429.048 423.82Z" fill="#0F9191"/>
<path d="M429.068 124.51C429.068 129.32 429.068 134.14 429.068 138.95C429.068 141.28 428.568 143.39 425.658 143.48C422.748 143.57 422.188 141.43 422.188 139.09C422.188 129.3 422.188 119.51 422.188 109.72C422.188 107.43 422.698 105.17 425.588 105.15C428.838 105.15 429.058 107.62 429.058 110.07C429.078 114.89 429.081 119.703 429.068 124.51Z" fill="#0F9191"/>
<path d="M907.978 207.2C907.978 211.69 908.058 216.2 907.978 220.66C907.928 222.76 907.258 224.78 904.608 224.72C902.298 224.66 901.458 222.79 901.438 220.91C901.348 211.12 901.338 201.32 901.498 191.53C901.498 189.6 902.228 187.08 904.708 187.22C907.028 187.34 907.708 189.83 907.808 191.77C908.018 196.9 907.878 202.06 907.878 207.2H907.978Z" fill="#0F9191"/>
<path d="M197.318 258.35C195.508 258.27 194.318 257.8 193.858 256.28C193.348 254.51 194.418 253.38 195.718 252.57C200.238 249.74 204.718 246.93 209.358 244.25C213.998 241.57 218.358 239.25 222.888 236.72C224.838 235.62 226.458 235.8 227.528 237.79C228.528 239.61 227.528 241.07 225.978 242C217.138 247.28 208.255 252.517 199.328 257.71C198.689 258.011 198.013 258.226 197.318 258.35Z" fill="#0F9191"/>
<path d="M526.848 387.4C525.018 387.48 523.848 386.86 523.268 385.54C523.021 384.904 523.028 384.198 523.286 383.567C523.545 382.937 524.036 382.429 524.658 382.15C533.598 376.777 542.598 371.477 551.658 366.25C552.004 366.008 552.395 365.839 552.807 365.751C553.22 365.664 553.646 365.66 554.06 365.74C554.474 365.821 554.868 365.983 555.218 366.218C555.568 366.454 555.867 366.757 556.098 367.11C557.388 368.88 556.508 370.42 554.998 371.33C546.188 376.62 537.328 381.81 528.468 386.99C527.956 387.22 527.408 387.358 526.848 387.4Z" fill="#0F9191"/>
<path d="M854.218 316.03C856.041 316.752 857.824 317.573 859.558 318.49C866.425 322.49 873.248 326.56 880.028 330.7C882.108 331.96 885.028 333.24 883.228 336.33C881.558 339.26 879.228 337.33 877.228 336.23C869.048 331.563 860.881 326.85 852.728 322.09C851.328 321.27 849.658 320.29 850.208 318.28C850.628 316.74 851.908 315.87 854.218 316.03Z" fill="#0F9191"/>
<path d="M0.0177778 123.48C0.0177778 118.66 0.0177778 113.84 0.0177778 109.02C0.0177778 107.02 0.207773 104.54 2.74777 104.42C5.28777 104.3 6.01777 106.51 6.02777 108.63C6.07444 118.77 6.05777 128.913 5.97777 139.06C5.97777 141.16 5.05778 143.24 2.53778 143.11C0.017782 142.98 0.0277778 140.79 0.0177778 138.95C-0.0222222 133.79 0.0177778 128.64 0.0177778 123.48Z" fill="#0F9191"/>
<path d="M538.208 425.26C538.208 430.08 538.208 434.89 538.208 439.71C538.208 441.89 538.208 444.39 535.058 444.29C532.348 444.21 532.058 442.02 532.058 439.95C532.058 430.15 532.058 420.347 532.058 410.54C532.058 408.28 532.438 405.87 535.358 405.93C538.518 406 538.138 408.73 538.168 410.8C538.268 415.62 538.208 420.44 538.208 425.26Z" fill="#0F9191"/>
<path d="M620.088 277.85C620.088 282.68 620.178 287.51 620.038 292.34C619.988 294.34 619.468 296.7 616.808 296.5C614.608 296.33 614.068 294.26 614.068 292.33C614.014 282.503 614.014 272.673 614.068 262.84C614.068 260.99 614.318 258.84 616.868 258.97C619.128 259.06 619.938 260.97 619.988 262.86C620.118 267.86 620.038 272.86 620.038 277.86L620.088 277.85Z" fill="#0F9191"/>
<path d="M436.988 86.1201C436.768 88.7701 434.918 89.9801 432.588 88.6901C423.018 83.3901 413.588 77.8201 404.138 72.2801C402.578 71.3601 401.708 69.8301 402.778 68.0501C403.968 66.0501 405.948 66.2201 407.618 67.1201C413.158 70.1201 418.618 73.2801 424.068 76.4201C427.518 78.4201 430.908 80.4901 434.348 82.4901C435.718 83.3001 436.838 84.1801 436.988 86.1201Z" fill="#0F9191"/>
<path d="M865.268 115.46C863.708 115.46 862.358 115.21 861.808 113.73C861.258 112.25 862.148 111.05 863.298 110.34C872.638 104.6 881.988 98.8501 891.888 94.0701C892.625 93.6462 893.497 93.525 894.322 93.7321C895.147 93.9392 895.859 94.4583 896.308 95.1801C896.529 95.495 896.677 95.8547 896.742 96.2337C896.808 96.6126 896.789 97.0013 896.687 97.3721C896.584 97.7428 896.402 98.0863 896.151 98.3781C895.901 98.6699 895.589 98.9028 895.238 99.0601C885.728 104.53 876.148 109.88 866.578 115.24C866.159 115.394 865.714 115.469 865.268 115.46Z" fill="#0F9191"/>
<path d="M363.078 291.31C363.934 291.583 364.77 291.917 365.578 292.31C373.988 297.04 382.388 301.77 390.738 306.59C391.864 307.286 392.826 308.217 393.558 309.32C393.866 309.827 393.994 310.423 393.919 311.012C393.845 311.6 393.573 312.146 393.148 312.56C392.338 313.56 391.228 314.13 390.068 313.47C380.138 307.75 370.228 302.01 360.388 296.15C360.107 295.958 359.867 295.712 359.682 295.426C359.497 295.141 359.37 294.822 359.309 294.487C359.248 294.153 359.253 293.809 359.325 293.477C359.397 293.144 359.534 292.829 359.728 292.55C360.408 291.39 361.608 291.34 363.078 291.31Z" fill="#0F9191"/>
<path d="M152.208 66.8999C153.195 67.2381 154.158 67.6458 155.088 68.1199C162.561 72.4132 170.014 76.7466 177.448 81.1199C178.854 82.0004 180.191 82.9866 181.448 84.0699C182.528 84.9699 183.258 86.1299 182.588 87.5699C182.456 87.9288 182.251 88.2566 181.986 88.5327C181.722 88.8089 181.403 89.0274 181.05 89.1748C180.697 89.3222 180.318 89.3951 179.935 89.3891C179.553 89.3831 179.176 89.2983 178.828 89.1399C169.018 83.6399 159.298 77.9799 149.618 72.2599C149.335 72.0725 149.092 71.8307 148.903 71.5486C148.714 71.2665 148.583 70.9496 148.518 70.6164C148.453 70.2833 148.455 69.9405 148.523 69.608C148.592 69.2756 148.726 68.9601 148.918 68.6799C149.528 67.5099 150.618 67.1199 152.208 66.8999Z" fill="#0F9191"/>
<path d="M408.928 349.69C408.928 354.69 408.998 359.69 408.928 364.69C408.878 366.97 408.288 369.24 405.388 369.17C402.488 369.1 402.108 366.76 402.098 364.5C402.098 354.68 402.098 344.863 402.098 335.05C402.098 332.59 402.628 329.94 405.648 330.05C408.668 330.16 408.958 332.88 408.978 335.28C409.038 340.11 408.978 344.93 408.978 349.76L408.928 349.69Z" fill="#0F9191"/>
<path d="M438.898 387.84C437.238 387.84 435.898 387.66 435.248 386.27C434.398 384.54 435.378 383.27 436.688 382.49C445.835 377.123 455.018 371.823 464.238 366.59C465.858 365.68 467.818 365.36 469.168 367.26C470.408 369 469.668 370.59 468.108 371.5C458.968 376.88 449.758 382.14 440.558 387.41C440.031 387.642 439.471 387.787 438.898 387.84Z" fill="#0F9191"/>
<path d="M408.968 200.35C408.968 205.18 408.968 210 408.968 214.83C408.968 217.3 408.398 219.95 405.468 219.99C402.358 220.04 402.118 217.2 402.108 214.84C402.048 205.007 402.048 195.18 402.108 185.36C402.108 183.11 402.428 180.68 405.408 180.76C408.138 180.82 408.908 183.05 408.948 185.36C409.038 190.36 408.948 195.36 408.948 200.36L408.968 200.35Z" fill="#0F9191"/>
<path d="M439.058 161.72C439.998 162.19 441.518 162.84 442.938 163.67C451.085 168.437 459.221 173.23 467.348 178.05C469.198 179.15 470.708 180.58 469.348 182.87C468.178 184.77 466.218 184.74 464.498 183.75C455.331 178.457 446.198 173.107 437.098 167.7C435.668 166.85 434.408 165.56 435.238 163.59C435.778 162.23 436.918 161.62 439.058 161.72Z" fill="#0F9191"/>
<path d="M449.128 291.3C451.418 291.44 453.548 292.91 455.678 294.06C462.378 297.68 468.928 301.6 475.498 305.46C476.618 306.17 477.666 306.987 478.628 307.9C480.078 309.18 481.278 310.68 479.908 312.63C478.538 314.58 476.828 314.03 475.088 313C465.941 307.667 456.784 302.313 447.618 296.94C446.278 296.15 445.198 295.05 445.698 293.28C446.138 291.76 447.428 291.41 449.128 291.3Z" fill="#0F9191"/>
<path d="M449.368 259.03C447.698 259.13 446.368 258.76 445.748 257.42C445.592 257.121 445.497 256.794 445.468 256.458C445.438 256.121 445.476 255.783 445.578 255.461C445.681 255.14 445.845 254.842 446.063 254.584C446.281 254.326 446.548 254.114 446.848 253.96C456.248 248.03 465.638 242.07 475.768 237.43C476.136 237.218 476.545 237.086 476.968 237.044C477.39 237.002 477.817 237.05 478.22 237.186C478.623 237.321 478.992 237.54 479.304 237.829C479.615 238.117 479.862 238.469 480.028 238.86C480.196 239.199 480.295 239.569 480.32 239.946C480.345 240.324 480.295 240.703 480.173 241.062C480.051 241.42 479.86 241.751 479.611 242.036C479.361 242.32 479.057 242.553 478.718 242.72C469.698 248 460.644 253.22 451.558 258.38C450.858 258.687 450.122 258.905 449.368 259.03Z" fill="#0F9191"/>
<path d="M70.0479 199.02C70.0479 203.5 70.0479 208.02 70.0479 212.45C70.0479 215.05 69.6378 217.93 66.4278 218C63.2178 218.07 63.1379 215.13 63.1179 212.82C63.0279 203.36 63.0479 193.91 63.1179 184.45C63.1179 182.26 63.2779 179.7 66.2279 179.7C69.1779 179.7 69.9778 182.11 70.0278 184.58C70.1278 189.39 70.0278 194.21 70.0278 199.02H70.0479Z" fill="#0F9191"/>
<path d="M129.798 217.12C129.398 219.32 127.978 220.17 126.548 221.12C118.168 226.53 109.398 231.25 100.658 236.03C98.8977 237.03 97.2477 237.77 95.9777 235.55C94.8377 233.55 95.8077 231.94 97.5177 230.91C102.918 227.64 108.378 224.47 113.838 221.29C117.418 219.21 120.988 217.06 124.668 215.16C127.148 213.86 129.148 214.35 129.798 217.12Z" fill="#0F9191"/>
<path d="M196.828 124.92C196.828 130.06 196.948 135.2 196.758 140.33C196.688 142.03 196.398 144.42 194.058 144.49C191.718 144.56 190.718 142.33 190.528 140.37C189.92 130.276 189.896 120.156 190.458 110.06C190.568 107.96 191.568 105.47 194.338 105.78C196.838 106.07 196.968 108.54 197.018 110.5C197.128 115.3 197.018 120.11 197.018 124.92H196.828Z" fill="#0F9191"/>
<path d="M253.528 141.21C255.348 141.21 256.798 141.21 257.408 142.72C258.228 144.72 256.728 145.95 255.408 146.72C249.718 150.12 243.938 153.38 238.168 156.72C235.008 158.53 231.898 160.45 228.618 162.02C227.008 162.79 224.848 163.15 223.778 161.02C222.708 158.89 223.968 157.51 225.698 156.51C234.018 151.757 242.358 147.013 250.718 142.28C251.622 141.843 252.562 141.485 253.528 141.21Z" fill="#0F9191"/>
<path d="M680.618 440.98C680.436 441.688 680.098 442.346 679.629 442.906C679.16 443.467 678.572 443.916 677.908 444.22C669.738 449.01 661.558 453.79 653.318 458.47C651.218 459.66 648.508 460.47 647.098 457.93C645.688 455.39 648.358 454.18 650.098 453.14C658.098 448.45 666.198 443.78 674.328 439.25C677.778 437.36 680.718 438.27 680.618 440.98Z" fill="#0F9191"/>
<path d="M922.868 439.53C922.904 440.147 922.757 440.76 922.445 441.294C922.134 441.828 921.672 442.258 921.118 442.53C912.058 447.743 903.004 452.963 893.958 458.19C892.278 459.19 890.768 459.25 889.708 457.4C888.398 455.1 889.708 453.55 891.518 452.45C898.368 448.45 905.268 444.45 912.158 440.45C914.158 439.29 916.158 438.04 918.228 437.06C920.888 435.84 922.248 437.25 922.868 439.53Z" fill="#0F9191"/>
<path d="M863.148 421.35C863.148 426.18 863.148 431.01 863.148 435.85C863.148 437.91 862.898 440.11 860.148 440.22C857.398 440.33 856.988 438.22 856.978 436.09C856.938 426.257 856.938 416.423 856.978 406.59C856.978 404.48 857.378 402.37 860.158 402.49C862.938 402.61 863.098 404.79 863.158 406.85C863.178 411.68 863.148 416.51 863.148 421.35Z" fill="#0F9191"/>
<path d="M322.108 200.27C322.108 205.27 322.108 210.27 322.108 215.21C322.108 217.52 321.428 219.87 318.758 219.93C316.088 219.99 315.288 217.63 315.278 215.34C315.218 205.55 315.198 195.76 315.278 185.96C315.278 183.43 315.948 180.52 319.278 180.82C322.468 181.1 322.038 184.07 322.068 186.33C322.148 190.98 322.068 195.63 322.068 200.27H322.108Z" fill="#0F9191"/>
<path d="M352.658 161.67C354.208 162.53 356.108 163.54 357.958 164.67C365.408 169.03 372.888 173.36 380.268 177.84C381.968 178.84 384.648 179.98 382.878 182.78C381.398 185.1 379.148 184.53 377.128 183.35C368.348 178.27 359.581 173.17 350.828 168.05C349.318 167.16 348.068 166.05 348.708 164.05C349.228 162.37 350.538 161.73 352.658 161.67Z" fill="#0F9191"/>
<path d="M380.408 216.33C381.678 216.42 382.928 216.52 383.408 217.81C384.168 219.81 382.748 221.06 381.408 221.94C376.955 224.86 372.431 227.67 367.838 230.37C363.248 233.07 358.528 235.54 353.908 238.18C352.228 239.18 350.788 239.18 349.458 237.68C347.988 235.97 348.718 234.36 350.158 233.38C359.378 227.09 369.248 221.92 378.998 216.54C379.452 216.39 379.929 216.319 380.408 216.33Z" fill="#0F9191"/>
<path d="M267.768 86.39C267.678 89.24 264.688 90 261.128 87.95C253.628 83.65 246.128 79.28 238.688 74.95C237.504 74.3669 236.364 73.6985 235.278 72.95C233.918 71.88 232.818 70.49 233.828 68.65C234.938 66.65 236.828 66.56 238.588 67.5C242.118 69.36 245.588 71.38 248.998 73.38C254.331 76.4466 259.638 79.54 264.918 82.66C266.368 83.47 267.718 84.43 267.768 86.39Z" fill="#0F9191"/>
<path d="M236.718 35.99C236.03 35.9717 235.365 35.7448 234.809 35.3393C234.254 34.9339 233.835 34.3691 233.608 33.72C233.33 33.1013 233.301 32.3989 233.529 31.7598C233.756 31.1206 234.221 30.594 234.828 30.29C238.198 28.18 241.578 26.06 245.018 24.06C250.758 20.73 256.548 17.48 262.338 14.22C264.068 13.22 265.898 12.79 267.118 14.85C268.338 16.91 267.238 18.42 265.508 19.44C256.375 24.8533 247.218 30.23 238.038 35.57C237.615 35.7583 237.172 35.8991 236.718 35.99Z" fill="#0F9191"/>
<path d="M293.098 49.8999C293.098 44.8999 293.038 39.8999 293.098 34.9599C293.098 33.0999 293.598 30.9599 295.868 30.8599C298.438 30.7599 299.068 32.9999 299.078 35.0599C299.158 45.1799 299.158 55.3066 299.078 65.4399C299.078 67.3399 298.468 69.4399 296.258 69.5199C293.688 69.6399 293.078 67.4299 293.048 65.3399C292.948 60.1999 293.048 55.0499 293.048 49.8999H293.098Z" fill="#0F9191"/>
<path d="M813.898 313.83C813.118 317.05 810.828 316.83 808.588 315.61C802.308 312.2 796.128 308.61 789.918 305.07C787.468 303.66 784.988 302.29 782.658 300.7C781.168 299.7 779.508 298.26 780.838 296.17C782.168 294.08 784.148 294.65 785.838 295.48C789.838 297.48 793.768 299.71 797.658 301.96C802.108 304.53 806.478 307.26 810.898 309.88C811.669 310.262 812.341 310.817 812.862 311.503C813.382 312.188 813.737 312.985 813.898 313.83Z" fill="#0F9191"/>
<path d="M839.868 278.87C839.868 274.23 839.868 269.59 839.868 264.96C839.868 263.13 839.868 260.96 842.338 260.82C842.803 260.789 843.27 260.858 843.707 261.022C844.143 261.187 844.539 261.443 844.868 261.774C845.197 262.105 845.451 262.503 845.613 262.94C845.776 263.378 845.842 263.845 845.808 264.31C845.938 274.41 845.918 284.51 845.808 294.61C845.82 294.99 845.752 295.368 845.609 295.721C845.467 296.073 845.252 296.392 844.979 296.656C844.706 296.921 844.381 297.125 844.024 297.257C843.667 297.388 843.287 297.444 842.908 297.42C840.768 297.5 839.908 296.12 839.908 294.27C839.828 289.14 839.908 284.01 839.908 278.87H839.868Z" fill="#0F9191"/>
<path d="M580.048 205.04C580.048 209.86 580.128 214.68 580.048 219.5C579.998 221.5 579.678 223.87 577.048 223.91C574.708 223.91 573.438 222 573.408 219.91C573.281 210.11 573.281 200.303 573.408 190.49C573.408 188.4 574.468 186.49 576.968 186.49C579.758 186.42 580.088 188.56 580.118 190.63C580.188 195.45 580.118 200.27 580.118 205.1L580.048 205.04Z" fill="#0F9191"/>
<path d="M639.208 222.63C639.113 223.476 638.808 224.286 638.321 224.984C637.834 225.683 637.179 226.249 636.418 226.63C627.951 231.537 619.421 236.367 610.828 241.12C609.168 242.04 607.158 242.44 605.878 240.55C604.488 238.48 606.048 236.93 607.598 236.01C616.338 230.857 625.131 225.807 633.978 220.86C636.038 219.76 638.208 219.92 639.208 222.63Z" fill="#0F9191"/>
<path d="M633.098 350.31C633.098 345.67 633.098 341.03 633.098 336.39C633.098 334.06 633.668 331.81 636.478 331.82C638.878 331.82 639.858 333.82 639.878 335.98C639.945 345.593 639.945 355.203 639.878 364.81C639.878 367.15 638.808 369.18 636.068 369.09C633.328 369 633.138 366.79 633.068 364.73C633.078 359.92 633.108 355.12 633.098 350.31Z" fill="#0F9191"/>
<path d="M603.918 314.12C605.518 314.21 606.758 314.12 607.338 315.47C607.918 316.82 607.288 317.74 606.488 318.64C604.678 320.64 602.108 321.64 599.838 322.96C593.698 326.61 587.498 330.14 581.338 333.76C579.268 334.97 576.958 336.46 575.178 333.91C573.398 331.36 575.638 329.59 577.658 328.41C585.408 323.88 593.208 319.41 601.018 315.05C601.946 314.631 602.919 314.319 603.918 314.12Z" fill="#0F9191"/>
<path d="M660.958 335.19C659.348 335.27 658.118 334.87 657.578 333.4C657.291 332.781 657.246 332.076 657.451 331.425C657.657 330.774 658.098 330.223 658.688 329.88C667.588 324.71 676.498 319.54 685.508 314.56C687.038 313.72 689.228 313.56 690.368 315.61C691.258 317.21 690.418 318.66 689.058 319.46C680.148 324.63 671.178 329.71 662.228 334.81C661.823 334.992 661.396 335.119 660.958 335.19Z" fill="#0F9191"/>
<path d="M660.998 366.06C661.859 366.319 662.696 366.654 663.498 367.06C671.398 371.613 679.285 376.203 687.158 380.83C689.108 381.98 691.768 383.26 689.958 386.14C688.408 388.59 686.158 387.28 684.248 386.14C676.061 381.473 667.878 376.753 659.698 371.98C658.198 371.11 656.978 369.91 657.508 367.98C657.938 366.4 659.318 366.18 660.998 366.06Z" fill="#0F9191"/>
<path d="M722.208 350.9C722.208 355.71 722.208 360.52 722.208 365.33C722.208 367.25 721.818 369.15 719.318 369.12C717.008 369.12 716.158 367.4 716.148 365.42C716.088 355.64 716.088 345.857 716.148 336.07C716.148 333.93 717.048 331.85 719.508 331.95C722.188 332.06 722.208 334.46 722.238 336.47C722.238 341.28 722.238 346.09 722.238 350.9H722.208Z" fill="#0F9191"/>
<path d="M907.078 349.12C907.078 353.45 907.178 357.78 907.078 362.12C907.008 364.49 907.498 367.96 904.078 367.92C900.828 367.92 900.288 364.64 900.248 361.92C900.158 355.26 900.188 348.6 900.248 341.92C900.185 339.584 900.268 337.246 900.498 334.92C900.748 332.87 901.608 330.85 904.108 330.85C906.888 330.85 907.108 333.09 907.108 335.13C907.188 339.79 907.108 344.46 907.108 349.13L907.078 349.12Z" fill="#0F9191"/>
<path d="M934.818 312.24C936.312 312.358 937.75 312.864 938.988 313.71C946.561 318.15 954.141 322.573 961.728 326.98C963.588 328.05 965.298 329.3 964.168 331.65C963.038 334 960.878 333.65 959.028 332.56C950.361 327.707 941.721 322.8 933.108 317.84C931.818 317.09 930.678 315.84 931.198 314.16C931.718 312.48 933.228 312.17 934.818 312.24Z" fill="#0F9191"/>
<path d="M964.638 366.94C964.568 368.67 963.368 369.62 962.068 370.37C953.888 375.14 945.708 379.92 937.448 384.57C935.348 385.75 932.718 386.45 931.398 383.64C930.308 381.32 932.448 380.05 934.178 379.05C942.238 374.4 950.308 369.76 958.418 365.2C961.718 363.37 964.618 364.29 964.638 366.94Z" fill="#0F9191"/>
</svg>
