<svg width="35" height="35" viewBox="0 0 35 35" fill="none" xmlns="http://www.w3.org/2000/svg">
<path fill-rule="evenodd" clip-rule="evenodd" d="M18.6919 33.0961C18.6919 33.0961 29.9264 23.8796 29.9264 13.928C29.9264 7.0642 24.3621 1.5 17.4984 1.5C10.6346 1.5 5.07043 7.0642 5.07031 13.928C5.07031 23.8796 16.3047 33.0961 16.3047 33.0961C16.9612 33.6347 18.0355 33.6347 18.6919 33.0961ZM11.2461 13.928C11.2461 17.3756 14.0509 20.1806 17.4987 20.1806C20.9464 20.1806 23.7512 17.3755 23.7512 13.9279C23.7512 10.4802 20.9463 7.67529 17.4987 7.67529C14.051 7.67529 11.2461 10.4804 11.2461 13.928Z" fill="white"/>
</svg>
