<svg width="35" height="35" viewBox="0 0 35 35" fill="none" xmlns="http://www.w3.org/2000/svg">
<path d="M4.57137 12.68C4.97616 12.9657 6.19637 13.814 8.23204 15.2247C10.2678 16.6354 11.8273 17.7215 12.9106 18.4833C13.0297 18.5668 13.2825 18.7483 13.6694 19.028C14.0563 19.308 14.3778 19.5342 14.6336 19.7068C14.8896 19.8793 15.1991 20.0728 15.5623 20.287C15.9255 20.5011 16.2678 20.662 16.5892 20.7686C16.9107 20.8761 17.2083 20.9293 17.482 20.9293H17.518C17.7918 20.9293 18.0895 20.876 18.411 20.7686C18.7323 20.662 19.0749 20.5009 19.4377 20.287C19.8007 20.0726 20.1102 19.8792 20.3662 19.7068C20.6222 19.5342 20.9435 19.308 21.3305 19.028C21.7173 18.748 21.9705 18.5668 22.0895 18.4833C23.1845 17.7215 25.9705 15.7869 30.4465 12.6797C31.3155 12.0728 32.0416 11.3405 32.6248 10.4833C33.2085 9.62648 33.5 8.72763 33.5 7.78726C33.5 7.00143 33.2171 6.32875 32.6516 5.76928C32.0861 5.20969 31.4164 4.93005 30.6428 4.93005H4.35702C3.44042 4.93005 2.73503 5.23952 2.24098 5.85847C1.74699 6.47755 1.5 7.25137 1.5 8.17986C1.5 8.92984 1.82749 9.74256 2.48216 10.6175C3.13676 11.4925 3.83339 12.1801 4.57137 12.68Z" fill="white"/>
<path d="M31.714 14.5905C27.8097 17.2331 24.845 19.2869 22.8215 20.7513C22.1429 21.2511 21.5925 21.6413 21.1697 21.9209C20.747 22.2006 20.1848 22.4863 19.4822 22.7779C18.78 23.0698 18.1255 23.2154 17.5182 23.2154H17.4821C16.875 23.2154 16.2201 23.0698 15.5179 22.7779C14.8156 22.4863 14.253 22.2006 13.8304 21.9209C13.4079 21.6413 12.8572 21.2511 12.1787 20.7513C10.5715 19.5728 7.61321 17.5189 3.30375 14.5905C2.62501 14.1384 2.02382 13.6202 1.5 13.037V27.2152C1.5 28.0014 1.77964 28.6737 2.33924 29.2332C2.89871 29.7929 3.57145 30.0727 4.35721 30.0727H30.643C31.4286 30.0727 32.1013 29.7929 32.6608 29.2332C33.2205 28.6735 33.5 28.0014 33.5 27.2152V13.037C32.988 13.6082 32.393 14.1263 31.714 14.5905Z" fill="white"/>
</svg>
