<svg width="200" height="69" viewBox="0 0 200 69" fill="none" xmlns="http://www.w3.org/2000/svg">
<path d="M77.8153 53.6174L73.0203 53.5701C71.1021 53.5513 70.1487 52.6251 70.1603 50.7907L70.1719 48.9567C70.1835 47.123 71.1483 46.215 73.0667 46.234L77.8617 46.281L77.85 48.1153L73.0551 48.0681C72.4149 48.0619 72.0939 48.3645 72.0901 48.9755L72.0785 50.8096C72.0747 51.4213 72.3919 51.7296 73.0319 51.7359L77.8269 51.7831L77.8153 53.6174ZM93.0872 51.1827C93.0756 53.017 92.1108 53.9244 90.1932 53.9056L88.2748 53.8867C86.3566 53.8677 85.4038 52.9416 85.4154 51.1073L85.4292 48.94C85.4408 47.106 86.405 46.1986 88.3234 46.2174L90.2416 46.2362C92.1592 46.2551 93.1126 47.1813 93.101 49.0156L93.0872 51.1827ZM91.169 51.1639L91.1828 48.9968C91.1866 48.3858 90.8688 48.0768 90.23 48.0706L88.3118 48.0517C87.6724 48.0453 87.3512 48.3481 87.3474 48.9591L87.3338 51.1262C87.3298 51.7379 87.647 52.0469 88.2864 52.0531L90.2048 52.0719C90.8436 52.0781 91.1652 51.7755 91.169 51.1639ZM102.573 53.8608L102.608 48.3588L105.485 48.3871C106.124 48.3933 106.442 48.7024 106.438 49.3132L106.409 53.8985L108.327 53.9173L108.356 49.332C108.368 47.4986 107.414 46.5717 105.496 46.5528L100.701 46.5056L100.655 53.842L102.573 53.8608ZM123.597 51.7831C123.588 53.2948 122.787 54.0483 121.194 54.0439L116.434 53.9969L116.446 52.1628L121.206 52.2096C121.519 52.2127 121.677 52.0644 121.679 51.7642C121.681 51.4527 121.525 51.296 121.212 51.2929L118.317 51.2643C116.725 51.2375 115.934 50.4516 115.943 48.9066C115.953 47.4059 116.754 46.6635 118.346 46.6792L123.106 46.726L123.095 48.5603L118.335 48.5133C118.032 48.5104 117.875 48.6594 117.861 48.9589C117.871 49.2704 118.026 49.4271 118.329 49.4302L121.223 49.4586C122.816 49.4743 123.607 50.2492 123.597 51.7831ZM138.856 51.5498C138.845 53.3285 137.88 54.208 135.962 54.1891L134.044 54.1703C132.126 54.1512 131.173 53.2252 131.184 51.3909L131.213 46.8058L133.132 46.8246L133.103 51.4097C133.099 52.0103 133.416 52.3185 134.056 52.336L135.974 52.3548C136.613 52.35 136.935 52.048 136.939 51.4474L136.967 46.8623L138.886 46.8812L138.856 51.5498ZM148.342 54.3108L148.405 44.3073L146.487 44.2882L146.423 54.292L148.342 54.3108ZM155.961 48.8833L157.007 48.8937L156.973 54.3957L158.89 54.4146L158.925 48.9126L159.971 48.9227L159.983 47.0887L158.937 47.0782L158.953 44.4108L157.036 44.392L157.019 47.0594L155.972 47.0492L155.961 48.8833ZM169.439 54.5181L167.521 54.4993L167.567 47.1632L169.486 47.182L169.439 54.5181ZM169.491 46.3489L167.573 46.33L167.584 44.4957L169.503 44.5146L169.491 46.3489ZM178.942 54.6117L178.977 49.1096L181.854 49.138C182.493 49.1442 182.811 49.4533 182.807 50.0643L182.778 54.6494L184.696 54.6682L184.725 50.0831C184.737 48.2495 183.783 47.3226 181.866 47.3037L177.07 47.2567L177.024 54.5928L178.942 54.6117ZM199.946 55.735C199.935 57.5693 198.958 58.4765 197.017 58.4574L194.175 58.4295L194.187 56.5959L197.064 56.6242C197.703 56.6305 198.024 56.3278 198.028 55.7162L198.034 54.7995L195.157 54.7711C193.239 54.7522 192.286 53.826 192.298 51.9919L192.309 50.1576C192.321 48.3242 193.285 47.4161 195.203 47.435L199.998 47.482L199.946 55.735ZM198.069 49.2974L195.192 49.269C194.552 49.2628 194.231 49.5654 194.227 50.1764L194.216 52.0107C194.212 52.6224 194.529 52.9306 195.169 52.937L198.045 52.9651L198.069 49.2974Z" fill="#FEFEFE"/>
<path d="M73.9825 12.3889L78.6561 12.4347L84.5433 35.2927L79.8007 35.2459L78.7743 30.5187L72.8329 30.4604L71.7627 35.167L67.4961 35.1251L73.9825 12.3889ZM77.9277 26.6133L75.8531 17.2497L73.7451 26.572L77.9277 26.6133ZM96.3215 22.6126L93.2095 23.5845C92.8073 22.0541 92.0519 21.2833 90.9373 21.2722C90.0343 21.2633 89.5773 21.7486 89.5711 22.7343C89.5675 23.2867 89.7333 23.71 90.0755 24.0037C90.4111 24.2977 91.1119 24.6466 92.1709 25.0554C93.3663 25.5236 94.2411 25.9362 94.7931 26.2836C95.3503 26.6368 95.8119 27.1598 96.1931 27.8588C96.5689 28.5571 96.7543 29.351 96.7485 30.2511C96.7387 31.812 96.2075 33.1112 95.1601 34.1549C94.1083 35.1987 92.6521 35.7143 90.7827 35.6961C87.2611 35.6613 85.3173 33.9612 84.9579 30.6025L88.4157 30.0325C88.6955 31.7211 89.5143 32.5729 90.8713 32.5862C92.0337 32.5977 92.6171 32.0845 92.6237 31.0479C92.6271 30.4898 92.4615 30.0666 92.1197 29.7729C91.7835 29.4847 91.1247 29.1646 90.1451 28.8185C88.3589 28.1802 87.1281 27.422 86.4625 26.5377C85.7971 25.6485 85.4709 24.6309 85.4781 23.4745C85.4885 21.8513 86.0251 20.5572 87.0879 19.5875C88.1497 18.624 89.4731 18.1472 91.0631 18.1629C93.8349 18.1902 95.5901 19.6711 96.3215 22.6126ZM103.379 17.2243L98.9435 17.1808L98.9729 12.5321L103.408 12.5757L103.379 17.2243ZM98.9663 18.5819L103.339 18.6249L103.232 35.4764L98.8599 35.4334L98.9663 18.5819ZM110.698 24.0644L106.582 23.5907C106.788 21.9011 107.462 20.6029 108.608 19.7024C109.749 18.8023 111.188 18.3607 112.921 18.3777C114.383 18.3921 115.554 18.7054 116.437 19.3237C117.321 19.9363 117.871 20.6426 118.098 21.448C118.325 22.2481 118.434 23.4911 118.423 25.1716L118.381 31.8876C118.368 33.9789 118.434 35.2275 118.579 35.6272L114.555 35.5877C114.415 35.1308 114.347 34.2698 114.355 32.999C113.387 34.9437 111.96 35.9043 110.069 35.8857C108.855 35.8737 107.869 35.4705 107.114 34.6828C106.358 33.8895 105.985 32.746 105.995 31.2421C106.007 29.3681 106.592 27.9206 107.749 26.9008C108.907 25.8868 111.008 25.2922 114.05 25.123L114.054 24.4903C114.062 23.3626 113.962 22.5813 113.753 22.1459C113.549 21.7114 113.144 21.4906 112.543 21.4848C111.438 21.4739 110.82 22.3337 110.698 24.0644ZM114.035 27.5493C112.772 27.6909 111.867 27.9842 111.32 28.429C110.779 28.8737 110.505 29.6228 110.498 30.6878C110.489 32.1069 110.971 32.8181 111.937 32.8276C112.46 32.8327 112.937 32.5184 113.369 31.8843C113.801 31.256 114.019 30.085 114.03 28.3811L114.035 27.5493ZM125.036 12.8908L131.119 12.9506C132.963 12.9688 134.393 13.1479 135.41 13.4944C136.422 13.8345 137.272 14.6009 137.957 15.7808C138.641 16.9615 138.975 18.4174 138.964 20.1546C138.953 21.8238 138.665 23.1996 138.104 24.2879C137.537 25.3707 136.761 26.155 135.77 26.6295C134.78 27.1039 133.263 27.3287 131.214 27.3085L129.572 27.2923L129.518 35.7349L124.892 35.6893L125.036 12.8908ZM129.639 16.6277L129.596 23.3956L131.042 23.4098C132.321 23.4222 133.147 23.1114 133.515 22.4769C133.889 21.8486 134.079 21.0241 134.085 20.0043C134.091 19.1439 133.952 18.448 133.671 17.9151C133.389 17.3821 133.058 17.0376 132.679 16.8855C132.305 16.7279 131.773 16.6487 131.085 16.6419L129.639 16.6277ZM140.852 13.0464L145.225 13.0894L145.176 20.831C145.967 19.4148 147.249 18.7154 149.023 18.7329C150.085 18.7433 150.923 19.0191 151.532 19.5607C152.142 20.0961 152.528 20.7785 152.686 21.5945C152.845 22.4168 152.922 23.6018 152.913 25.1574L152.844 35.9642L148.472 35.9212L148.54 25.0913C148.547 23.9866 148.456 23.2564 148.269 22.8901C148.081 22.5288 147.691 22.343 147.094 22.3372C146.508 22.3315 146.037 22.4975 145.686 22.8418C145.335 23.1859 145.156 23.9645 145.149 25.1953L145.081 35.8879L140.708 35.8449L140.852 13.0464ZM160.077 24.55L155.961 24.0762C156.167 22.3867 156.84 21.0884 157.987 20.1879C159.128 19.2878 160.567 18.8464 162.3 18.8633C163.763 18.8777 164.933 19.1909 165.816 19.8092C166.7 20.4218 167.25 21.1281 167.477 21.9337C167.704 22.7336 167.812 23.9769 167.802 25.6571L167.759 32.3731C167.746 34.4646 167.813 35.713 167.958 36.1129L163.934 36.0733C163.794 35.6163 163.726 34.7553 163.734 33.4845C162.765 35.4292 161.339 36.3898 159.448 36.3712C158.234 36.3592 157.248 35.956 156.493 35.1683C155.737 34.3751 155.364 33.2316 155.373 31.7276C155.385 29.8536 155.971 28.4061 157.128 27.3863C158.286 26.3723 160.387 25.7777 163.43 25.6086L163.434 24.9761C163.441 23.8481 163.34 23.0668 163.131 22.6314C162.928 22.1969 162.523 21.9761 161.921 21.9703C160.817 21.9594 160.199 22.8194 160.077 24.55ZM163.414 28.0348C162.152 28.1765 161.246 28.4698 160.7 28.9145C160.158 29.3592 159.884 30.1083 159.878 31.1733C159.869 32.5924 160.349 33.3036 161.316 33.3131C161.839 33.3182 162.316 33.0039 162.748 32.3701C163.18 31.7415 163.398 30.5705 163.409 28.8666L163.414 28.0348ZM171.042 19.2907L174.876 19.3284L174.851 23.396C175.561 20.532 176.801 19.1084 178.57 19.1257C178.786 19.128 179.034 19.1588 179.314 19.2189L179.285 23.8157C178.968 23.7674 178.725 23.7421 178.562 23.7403C176.444 23.7195 175.376 25.4465 175.354 28.9214L175.308 36.1852L170.936 36.1422L171.042 19.2907ZM180.759 19.3862L184.91 19.427L184.896 21.7231C185.652 19.9702 186.92 19.1053 188.699 19.1229C190.553 19.1413 191.672 20.0294 192.052 21.7934C192.765 20.04 194.038 19.1754 195.871 19.1933C196.89 19.2035 197.707 19.4108 198.307 19.8152C198.912 20.2258 199.325 20.7769 199.558 21.4744C199.791 22.1712 199.904 23.4827 199.892 25.4084L199.823 36.4262L195.451 36.3832L195.517 25.8382C195.525 24.5794 195.445 23.7581 195.284 23.381C195.123 22.9976 194.76 22.8059 194.195 22.8003C193.514 22.7937 193.068 23.04 192.859 23.5333C192.65 24.0274 192.543 25.0233 192.534 26.5273L192.472 36.3539L188.1 36.3109L188.167 25.6183C188.175 24.4103 188.1 23.6295 187.944 23.2739C187.782 22.9136 187.424 22.7338 186.854 22.7283C186.157 22.7214 185.691 22.973 185.455 23.4891C185.219 24.005 185.097 24.9953 185.088 26.4541L185.026 36.2808L180.653 36.2378L180.759 19.3862Z" fill="#FEFEFE"/>
<path d="M54.2717 12.6353L41.5439 4.99567C22.8564 11.2521 10.553 21.9427 10.4756 34.1959C10.3984 46.4239 22.515 57.336 41.0573 63.9631L53.9945 56.5088C57.2381 54.6426 59.8505 50.0183 59.8743 46.2346L59.8911 43.5816L60.0041 25.677L60.0209 23.0237C60.0449 19.2398 57.4911 14.5649 54.2717 12.6353ZM39.8049 3.95171L35.9417 1.63278C32.7217 -0.296197 27.4496 -0.348079 24.206 1.51749L5.89857 12.1595C2.65517 14.0256 0.170775 18.6512 0.146775 22.4349L0.137175 23.9659L0.00997343 44.115L0.000173633 45.6458C-0.0236264 49.4297 2.40197 54.1035 5.62157 56.0333L23.7922 67.0338C27.012 68.9628 32.2839 69.0147 35.5279 67.1491L39.3007 64.9754C18.7586 58.5438 5.06457 47.0839 5.14617 34.1433C5.22817 21.1781 19.1182 9.97008 39.8049 3.95171Z" fill="#FEFEFE"/>
<path d="M27.0109 42.7014L27.0605 42.9118L30.8171 42.9488L30.7583 42.7384L26.6881 25.9297L26.6351 25.7193L22.8815 25.6823L22.8279 25.8918L18.6135 42.6189L18.5625 42.8282L22.3163 42.8652L22.3607 42.6557L23.0093 40.0499L26.3729 40.0832L27.0109 42.7014ZM24.7589 31.0881L25.6051 36.5538L23.7993 36.536L24.7139 31.0876L24.7589 31.0881ZM41.7407 30.3223C41.7611 27.0807 39.8275 25.8255 37.4347 25.802L32.3557 25.7521L32.3543 25.962L32.2481 42.753L32.2469 42.9628L35.8809 42.9987L35.8825 42.7887L35.9111 38.2646L37.3559 38.2788C39.7487 38.3023 41.6997 36.8054 41.7179 33.9136L41.7407 30.3223ZM38.0825 34.0411C38.0797 34.461 37.7617 34.7844 37.3779 34.7806L35.9333 34.7664L35.9679 29.2859L37.4125 29.3001C37.7963 29.3039 38.1103 29.6335 38.1077 30.0299L38.0825 34.0411ZM47.3387 30.4006C47.3415 29.9809 47.6595 29.6575 48.0659 29.6615L51.7455 29.6978L51.7693 25.943L48.0897 25.9068C45.6741 25.8831 43.7201 27.8695 43.7043 30.3649L43.6523 38.5971C43.6367 41.069 45.5655 43.0938 47.9811 43.1175L51.8411 43.1554L51.8649 39.401L48.0047 39.3629C47.5983 39.3589 47.2843 39.0292 47.2867 38.6328L47.3387 30.4006Z" fill="#2B2A29"/>
<path d="M77.8153 53.6174L73.0203 53.5701C71.1021 53.5513 70.1487 52.6251 70.1603 50.7907L70.1719 48.9567C70.1835 47.123 71.1483 46.215 73.0667 46.234L77.8617 46.281L77.85 48.1153L73.0551 48.0681C72.4149 48.0619 72.0939 48.3645 72.0901 48.9755L72.0785 50.8096C72.0747 51.4213 72.3919 51.7296 73.0319 51.7359L77.8269 51.7831L77.8153 53.6174ZM93.0872 51.1827C93.0756 53.017 92.1108 53.9244 90.1932 53.9056L88.2748 53.8867C86.3566 53.8677 85.4038 52.9416 85.4154 51.1073L85.4292 48.94C85.4408 47.106 86.405 46.1986 88.3234 46.2174L90.2416 46.2362C92.1592 46.2551 93.1126 47.1813 93.101 49.0156L93.0872 51.1827ZM91.169 51.1639L91.1828 48.9968C91.1866 48.3858 90.8688 48.0768 90.23 48.0706L88.3118 48.0517C87.6724 48.0453 87.3512 48.3481 87.3474 48.9591L87.3338 51.1262C87.3298 51.7379 87.647 52.0469 88.2864 52.0531L90.2048 52.0719C90.8436 52.0781 91.1652 51.7755 91.169 51.1639ZM102.573 53.8608L102.608 48.3588L105.485 48.3871C106.124 48.3933 106.442 48.7024 106.438 49.3132L106.409 53.8985L108.327 53.9173L108.356 49.332C108.368 47.4986 107.414 46.5717 105.496 46.5528L100.701 46.5056L100.655 53.842L102.573 53.8608ZM123.597 51.7831C123.588 53.2948 122.787 54.0483 121.194 54.0439L116.434 53.9969L116.446 52.1628L121.206 52.2096C121.519 52.2127 121.677 52.0644 121.679 51.7642C121.681 51.4527 121.525 51.296 121.212 51.2929L118.317 51.2643C116.725 51.2375 115.934 50.4516 115.943 48.9066C115.953 47.4059 116.754 46.6635 118.346 46.6792L123.106 46.726L123.095 48.5603L118.335 48.5133C118.032 48.5104 117.875 48.6594 117.861 48.9589C117.871 49.2704 118.026 49.4271 118.329 49.4302L121.223 49.4586C122.816 49.4743 123.607 50.2492 123.597 51.7831ZM138.856 51.5498C138.845 53.3285 137.88 54.208 135.962 54.1891L134.044 54.1703C132.126 54.1512 131.173 53.2252 131.184 51.3909L131.213 46.8058L133.132 46.8246L133.103 51.4097C133.099 52.0103 133.416 52.3185 134.056 52.336L135.974 52.3548C136.613 52.35 136.935 52.048 136.939 51.4474L136.967 46.8623L138.886 46.8812L138.856 51.5498ZM148.342 54.3108L148.405 44.3073L146.487 44.2882L146.423 54.292L148.342 54.3108ZM155.961 48.8833L157.007 48.8937L156.973 54.3957L158.89 54.4146L158.925 48.9126L159.971 48.9227L159.983 47.0887L158.937 47.0782L158.953 44.4108L157.036 44.392L157.019 47.0594L155.972 47.0492L155.961 48.8833ZM169.439 54.5181L167.521 54.4993L167.567 47.1632L169.486 47.182L169.439 54.5181ZM169.491 46.3489L167.573 46.33L167.584 44.4957L169.503 44.5146L169.491 46.3489ZM178.942 54.6117L178.977 49.1096L181.854 49.138C182.493 49.1442 182.811 49.4533 182.807 50.0643L182.778 54.6494L184.696 54.6682L184.725 50.0831C184.737 48.2495 183.783 47.3226 181.866 47.3037L177.07 47.2567L177.024 54.5928L178.942 54.6117ZM199.946 55.735C199.935 57.5693 198.958 58.4765 197.017 58.4574L194.175 58.4295L194.187 56.5959L197.064 56.6242C197.703 56.6305 198.024 56.3278 198.028 55.7162L198.034 54.7995L195.157 54.7711C193.239 54.7522 192.286 53.826 192.298 51.9919L192.309 50.1576C192.321 48.3242 193.285 47.4161 195.203 47.435L199.998 47.482L199.946 55.735ZM198.069 49.2974L195.192 49.269C194.552 49.2628 194.231 49.5654 194.227 50.1764L194.216 52.0107C194.212 52.6224 194.529 52.9306 195.169 52.937L198.045 52.9651L198.069 49.2974Z" fill="#FEFEFE"/>
<path d="M73.9825 12.3889L78.6561 12.4347L84.5433 35.2927L79.8007 35.2459L78.7743 30.5187L72.8329 30.4604L71.7627 35.167L67.4961 35.1251L73.9825 12.3889ZM77.9277 26.6133L75.8531 17.2497L73.7451 26.572L77.9277 26.6133ZM96.3215 22.6126L93.2095 23.5845C92.8073 22.0541 92.0519 21.2833 90.9373 21.2722C90.0343 21.2633 89.5773 21.7486 89.5711 22.7343C89.5675 23.2867 89.7333 23.71 90.0755 24.0037C90.4111 24.2977 91.1119 24.6466 92.1709 25.0554C93.3663 25.5236 94.2411 25.9362 94.7931 26.2836C95.3503 26.6368 95.8119 27.1598 96.1931 27.8588C96.5689 28.5571 96.7543 29.351 96.7485 30.2511C96.7387 31.812 96.2075 33.1112 95.1601 34.1549C94.1083 35.1987 92.6521 35.7143 90.7827 35.6961C87.2611 35.6613 85.3173 33.9612 84.9579 30.6025L88.4157 30.0325C88.6955 31.7211 89.5143 32.5729 90.8713 32.5862C92.0337 32.5977 92.6171 32.0845 92.6237 31.0479C92.6271 30.4898 92.4615 30.0666 92.1197 29.7729C91.7835 29.4847 91.1247 29.1646 90.1451 28.8185C88.3589 28.1802 87.1281 27.422 86.4625 26.5377C85.7971 25.6485 85.4709 24.6309 85.4781 23.4745C85.4885 21.8513 86.0251 20.5572 87.0879 19.5875C88.1497 18.624 89.4731 18.1472 91.0631 18.1629C93.8349 18.1902 95.5901 19.6711 96.3215 22.6126ZM103.379 17.2243L98.9435 17.1808L98.9729 12.5321L103.408 12.5757L103.379 17.2243ZM98.9663 18.5819L103.339 18.6249L103.232 35.4764L98.8599 35.4334L98.9663 18.5819ZM110.698 24.0644L106.582 23.5907C106.788 21.9011 107.462 20.6029 108.608 19.7024C109.749 18.8023 111.188 18.3607 112.921 18.3777C114.383 18.3921 115.554 18.7054 116.437 19.3237C117.321 19.9363 117.871 20.6426 118.098 21.448C118.325 22.2481 118.434 23.4911 118.423 25.1716L118.381 31.8876C118.368 33.9789 118.434 35.2275 118.579 35.6272L114.555 35.5877C114.415 35.1308 114.347 34.2698 114.355 32.999C113.387 34.9437 111.96 35.9043 110.069 35.8857C108.855 35.8737 107.869 35.4705 107.114 34.6828C106.358 33.8895 105.985 32.746 105.995 31.2421C106.007 29.3681 106.592 27.9206 107.749 26.9008C108.907 25.8868 111.008 25.2922 114.05 25.123L114.054 24.4903C114.062 23.3626 113.962 22.5813 113.753 22.1459C113.549 21.7114 113.144 21.4906 112.543 21.4848C111.438 21.4739 110.82 22.3337 110.698 24.0644ZM114.035 27.5493C112.772 27.6909 111.867 27.9842 111.32 28.429C110.779 28.8737 110.505 29.6228 110.498 30.6878C110.489 32.1069 110.971 32.8181 111.937 32.8276C112.46 32.8327 112.937 32.5184 113.369 31.8843C113.801 31.256 114.019 30.085 114.03 28.3811L114.035 27.5493ZM125.036 12.8908L131.119 12.9506C132.963 12.9688 134.393 13.1479 135.41 13.4944C136.422 13.8345 137.272 14.6009 137.957 15.7808C138.641 16.9615 138.975 18.4174 138.964 20.1546C138.953 21.8238 138.665 23.1996 138.104 24.2879C137.537 25.3707 136.761 26.155 135.77 26.6295C134.78 27.1039 133.263 27.3287 131.214 27.3085L129.572 27.2923L129.518 35.7349L124.892 35.6893L125.036 12.8908ZM129.639 16.6277L129.596 23.3956L131.042 23.4098C132.321 23.4222 133.147 23.1114 133.515 22.4769C133.889 21.8486 134.079 21.0241 134.085 20.0043C134.091 19.1439 133.952 18.448 133.671 17.9151C133.389 17.3821 133.058 17.0376 132.679 16.8855C132.305 16.7279 131.773 16.6487 131.085 16.6419L129.639 16.6277ZM140.852 13.0464L145.225 13.0894L145.176 20.831C145.967 19.4148 147.249 18.7154 149.023 18.7329C150.085 18.7433 150.923 19.0191 151.532 19.5607C152.142 20.0961 152.528 20.7785 152.686 21.5945C152.845 22.4168 152.922 23.6018 152.913 25.1574L152.844 35.9642L148.472 35.9212L148.54 25.0913C148.547 23.9866 148.456 23.2564 148.269 22.8901C148.081 22.5288 147.691 22.343 147.094 22.3372C146.508 22.3315 146.037 22.4975 145.686 22.8418C145.335 23.1859 145.156 23.9645 145.149 25.1953L145.081 35.8879L140.708 35.8449L140.852 13.0464ZM160.077 24.55L155.961 24.0762C156.167 22.3867 156.84 21.0884 157.987 20.1879C159.128 19.2878 160.567 18.8464 162.3 18.8633C163.763 18.8777 164.933 19.1909 165.816 19.8092C166.7 20.4218 167.25 21.1281 167.477 21.9337C167.704 22.7336 167.812 23.9769 167.802 25.6571L167.759 32.3731C167.746 34.4646 167.813 35.713 167.958 36.1129L163.934 36.0733C163.794 35.6163 163.726 34.7553 163.734 33.4845C162.765 35.4292 161.339 36.3898 159.448 36.3712C158.234 36.3592 157.248 35.956 156.493 35.1683C155.737 34.3751 155.364 33.2316 155.373 31.7276C155.385 29.8536 155.971 28.4061 157.128 27.3863C158.286 26.3723 160.387 25.7777 163.43 25.6086L163.434 24.9761C163.441 23.8481 163.34 23.0668 163.131 22.6314C162.928 22.1969 162.523 21.9761 161.921 21.9703C160.817 21.9594 160.199 22.8194 160.077 24.55ZM163.414 28.0348C162.152 28.1765 161.246 28.4698 160.7 28.9145C160.158 29.3592 159.884 30.1083 159.878 31.1733C159.869 32.5924 160.349 33.3036 161.316 33.3131C161.839 33.3182 162.316 33.0039 162.748 32.3701C163.18 31.7415 163.398 30.5705 163.409 28.8666L163.414 28.0348ZM171.042 19.2907L174.876 19.3284L174.851 23.396C175.561 20.532 176.801 19.1084 178.57 19.1257C178.786 19.128 179.034 19.1588 179.314 19.2189L179.285 23.8157C178.968 23.7674 178.725 23.7421 178.562 23.7403C176.444 23.7195 175.376 25.4465 175.354 28.9214L175.308 36.1852L170.936 36.1422L171.042 19.2907ZM180.759 19.3862L184.91 19.427L184.896 21.7231C185.652 19.9702 186.92 19.1053 188.699 19.1229C190.553 19.1413 191.672 20.0294 192.052 21.7934C192.765 20.04 194.038 19.1754 195.871 19.1933C196.89 19.2035 197.707 19.4108 198.307 19.8152C198.912 20.2258 199.325 20.7769 199.558 21.4744C199.791 22.1712 199.904 23.4827 199.892 25.4084L199.823 36.4262L195.451 36.3832L195.517 25.8382C195.525 24.5794 195.445 23.7581 195.284 23.381C195.123 22.9976 194.76 22.8059 194.195 22.8003C193.514 22.7937 193.068 23.04 192.859 23.5333C192.65 24.0274 192.543 25.0233 192.534 26.5273L192.472 36.3539L188.1 36.3109L188.167 25.6183C188.175 24.4103 188.1 23.6295 187.944 23.2739C187.782 22.9136 187.424 22.7338 186.854 22.7283C186.157 22.7214 185.691 22.973 185.455 23.4891C185.219 24.005 185.097 24.9953 185.088 26.4541L185.026 36.2808L180.653 36.2378L180.759 19.3862Z" fill="#FEFEFE"/>
<path d="M27.0109 42.7014L27.0605 42.9118L30.8171 42.9488L30.7583 42.7384L26.6881 25.9297L26.6351 25.7193L22.8815 25.6823L22.8279 25.8918L18.6135 42.6189L18.5625 42.8282L22.3163 42.8652L22.3607 42.6557L23.0093 40.0499L26.3729 40.0832L27.0109 42.7014ZM24.7589 31.0881L25.6051 36.5538L23.7993 36.536L24.7139 31.0876L24.7589 31.0881ZM41.7407 30.3223C41.7611 27.0807 39.8275 25.8255 37.4347 25.802L32.3557 25.7521L32.3543 25.962L32.2481 42.753L32.2469 42.9628L35.8809 42.9987L35.8825 42.7887L35.9111 38.2646L37.3559 38.2788C39.7487 38.3023 41.6997 36.8054 41.7179 33.9136L41.7407 30.3223ZM38.0825 34.0411C38.0797 34.461 37.7617 34.7844 37.3779 34.7806L35.9333 34.7664L35.9679 29.2859L37.4125 29.3001C37.7963 29.3039 38.1103 29.6335 38.1077 30.0299L38.0825 34.0411ZM47.3387 30.4006C47.3415 29.9809 47.6595 29.6575 48.0659 29.6615L51.7455 29.6978L51.7693 25.943L48.0897 25.9068C45.6741 25.8831 43.7201 27.8695 43.7043 30.3649L43.6523 38.5971C43.6367 41.069 45.5655 43.0938 47.9811 43.1175L51.8411 43.1554L51.8649 39.401L48.0047 39.3629C47.5983 39.3589 47.2843 39.0292 47.2867 38.6328L47.3387 30.4006Z" fill="#008889"/>
</svg>
