<svg width="200" height="60" viewBox="0 0 200 60" fill="none" xmlns="http://www.w3.org/2000/svg">
<path d="M77.8169 46.9248L73.0218 46.8834C71.1034 46.8668 70.1502 46.0539 70.1618 44.4442L70.1734 42.8343C70.1848 41.2252 71.1499 40.4282 73.0681 40.4448L77.8631 40.4862L77.8515 42.0959L73.0565 42.0547C72.4165 42.049 72.0955 42.3146 72.0917 42.8508L72.0801 44.4607C72.0763 44.9976 72.3933 45.268 73.0335 45.2737L77.8285 45.3149L77.8169 46.9248ZM93.0889 44.7882C93.0773 46.3979 92.1123 47.1943 90.1947 47.1777L88.2765 47.1612C86.3583 47.1447 85.4055 46.3318 85.4171 44.7219L85.4307 42.8199C85.4423 41.21 86.4067 40.4136 88.3249 40.4304L90.2431 40.4469C92.1609 40.4634 93.1141 41.2762 93.1025 42.8861L93.0889 44.7882ZM91.1707 44.7717L91.1843 42.8695C91.1881 42.3333 90.8705 42.0623 90.2317 42.0566L88.3133 42.0401C87.6739 42.0346 87.3529 42.3002 87.3491 42.8365L87.3353 44.7386C87.3315 45.2752 87.6487 45.5465 88.2881 45.5519L90.2063 45.5684C90.8451 45.5741 91.1667 45.3085 91.1707 44.7717ZM102.575 47.1385L102.609 42.3096L105.486 42.3344C106.126 42.3399 106.444 42.6111 106.44 43.1474L106.411 47.1715L108.329 47.1881L108.358 43.1639C108.369 41.5546 107.415 40.7411 105.498 40.7246L100.703 40.6833L100.656 47.1219L102.575 47.1385ZM123.599 45.3149C123.59 46.6417 122.788 47.3031 121.196 47.2992L116.436 47.2581L116.447 45.6482L121.208 45.6893C121.521 45.692 121.679 45.562 121.681 45.2984C121.683 45.0252 121.526 44.8874 121.213 44.8847L118.319 44.8598C116.727 44.8363 115.935 44.1465 115.945 42.7903C115.954 41.4735 116.755 40.8218 118.348 40.8355L123.108 40.8765L123.097 42.4864L118.336 42.4454C118.034 42.4426 117.877 42.5734 117.863 42.8362C117.873 43.1096 118.028 43.2474 118.331 43.2499L121.225 43.2748C122.817 43.2886 123.609 43.9687 123.599 45.3149ZM138.858 45.1104C138.847 46.6713 137.881 47.4431 135.964 47.4266L134.046 47.4101C132.128 47.3935 131.174 46.5806 131.186 44.9707L131.215 40.9466L133.133 40.9631L133.104 44.9875C133.101 45.5144 133.418 45.785 134.058 45.8002L135.975 45.8167C136.615 45.8124 136.936 45.5474 136.94 45.0205L136.969 40.9962L138.887 41.0127L138.858 45.1104ZM148.343 47.5334L148.406 38.7537L146.488 38.7372L146.425 47.5169L148.343 47.5334ZM155.963 42.7701L157.009 42.7791L156.974 47.608L158.892 47.6245L158.927 42.7956L159.973 42.8047L159.985 41.1948L158.938 41.1859L158.955 38.8448L157.037 38.8283L157.021 41.1693L155.974 41.1602L155.963 42.7701ZM169.441 47.7156L167.523 47.699L167.569 41.2602L169.487 41.277L169.441 47.7156ZM169.493 40.5456L167.574 40.529L167.586 38.9193L169.504 38.9358L169.493 40.5456ZM178.944 47.7975L178.979 42.9688L181.856 42.9935C182.495 42.9991 182.813 43.2702 182.809 43.8064L182.78 47.8306L184.698 47.8473L184.727 43.8229C184.738 42.2138 183.785 41.4003 181.868 41.3838L177.072 41.3423L177.026 47.7809L178.944 47.7975ZM199.948 48.7834C199.936 50.3933 198.96 51.1895 197.019 51.1727L194.177 51.1482L194.189 49.5391L197.065 49.5638C197.704 49.5695 198.026 49.3037 198.03 48.7668L198.035 47.9623L195.159 47.9376C193.24 47.9208 192.288 47.1081 192.299 45.4982L192.311 43.8883C192.322 42.2792 193.287 41.4822 195.205 41.4988L200 41.5402L199.948 48.7834ZM198.07 43.1334L195.193 43.1087C194.554 43.103 194.233 43.3688 194.229 43.905L194.218 45.5147C194.214 46.0516 194.531 46.3222 195.17 46.3277L198.047 46.3526L198.07 43.1334Z" fill="#2B2A29"/>
<path d="M73.9823 10.7403L78.6559 10.7806L84.5431 30.842L79.8007 30.8011L78.7743 26.6523L72.8326 26.6009L71.7626 30.7317L67.496 30.6949L73.9823 10.7403ZM77.9275 23.2245L75.8529 15.0065L73.7451 23.1885L77.9275 23.2245ZM96.3215 19.7134L93.2095 20.5664C92.8073 19.2233 92.0519 18.5466 90.9371 18.537C90.0341 18.5293 89.5771 18.9552 89.5709 19.8202C89.5675 20.3051 89.7331 20.6764 90.0755 20.9344C90.4111 21.1922 91.1117 21.4984 92.1709 21.8574C93.3663 22.2682 94.2411 22.6303 94.7929 22.9353C95.3503 23.2453 95.8119 23.7041 96.1931 24.3176C96.5689 24.9305 96.7541 25.6273 96.7485 26.4172C96.7387 27.7874 96.2075 28.9274 95.1599 29.8435C94.1081 30.7595 92.6521 31.2123 90.7827 31.1961C87.2609 31.1658 85.3173 29.6736 84.9577 26.7258L88.4155 26.2254C88.6953 27.7076 89.5143 28.4552 90.8713 28.4669C92.0335 28.4768 92.6171 28.0263 92.6235 27.1165C92.6271 26.6268 92.4613 26.2555 92.1197 25.9975C91.7835 25.7446 91.1247 25.4638 90.1451 25.1599C88.3589 24.5997 87.1281 23.9343 86.4625 23.1581C85.7969 22.3777 85.4709 21.4846 85.4781 20.4697C85.4883 19.0451 86.0249 17.9093 87.0879 17.0583C88.1495 16.2127 89.4729 15.7943 91.0629 15.808C93.8349 15.8319 95.5901 17.1316 96.3215 19.7134ZM103.379 14.9843L98.9435 14.946L98.9727 10.8662L103.408 10.9043L103.379 14.9843ZM98.9663 16.1759L103.338 16.2135L103.232 31.0033L98.8599 30.9656L98.9663 16.1759ZM110.698 20.9875L106.582 20.5717C106.788 19.089 107.462 17.9496 108.608 17.1591C109.749 16.3691 111.188 15.9817 112.921 15.9967C114.383 16.0093 115.554 16.2841 116.438 16.8267C117.321 17.3645 117.871 17.9842 118.098 18.6913C118.325 19.3933 118.434 20.4845 118.423 21.9592L118.381 27.8538C118.368 29.6892 118.434 30.7848 118.579 31.1358L114.555 31.101C114.415 30.7 114.347 29.9443 114.355 28.829C113.387 30.5358 111.96 31.3788 110.069 31.3625C108.855 31.3522 107.869 30.998 107.114 30.3067C106.358 29.6105 105.985 28.607 105.995 27.287C106.007 25.6423 106.592 24.3719 107.749 23.477C108.907 22.5869 111.008 22.0652 114.051 21.9166L114.055 21.3615C114.062 20.3715 113.961 19.6858 113.753 19.3036C113.549 18.9223 113.144 18.7287 112.542 18.7234C111.438 18.7139 110.82 19.4686 110.698 20.9875ZM114.035 24.046C112.772 24.1703 111.867 24.4279 111.321 24.818C110.779 25.2083 110.505 25.8658 110.498 26.8007C110.489 28.046 110.971 28.6702 111.937 28.6786C112.46 28.683 112.937 28.4071 113.369 27.8508C113.801 27.2994 114.019 26.2715 114.03 24.776L114.035 24.046ZM125.036 11.181L131.119 11.2334C132.963 11.2493 134.393 11.4065 135.41 11.7106C136.422 12.0093 137.272 12.6818 137.957 13.7175C138.641 14.7536 138.975 16.0313 138.964 17.5562C138.954 19.0211 138.665 20.2287 138.104 21.1838C137.537 22.1339 136.761 22.8225 135.77 23.2389C134.78 23.6553 133.263 23.8526 131.214 23.8349L129.572 23.8207L129.518 31.2302L124.892 31.1903L125.036 11.181ZM129.639 14.4607L129.596 20.4005L131.042 20.4129C132.321 20.424 133.147 20.151 133.515 19.5942C133.889 19.0427 134.079 18.3193 134.085 17.4241C134.091 16.6691 133.953 16.0584 133.671 15.5906C133.389 15.1229 133.058 14.8203 132.679 14.6868C132.306 14.5485 131.773 14.479 131.085 14.4732L129.639 14.4607ZM140.852 11.3174L145.225 11.3552L145.176 18.1496C145.967 16.9067 147.249 16.2928 149.023 16.3082C150.085 16.3174 150.923 16.5594 151.532 17.0349C152.142 17.5048 152.528 18.1037 152.686 18.8198C152.845 19.5414 152.922 20.5816 152.913 21.9469L152.844 31.4316L148.472 31.3938L148.54 21.8889C148.547 20.9192 148.456 20.2783 148.269 19.9568C148.081 19.6397 147.691 19.4768 147.094 19.4716C146.508 19.4665 146.037 19.6122 145.686 19.9144C145.335 20.2164 145.156 20.8997 145.149 21.9802L145.081 31.3644L140.708 31.3267L140.852 11.3174ZM160.077 21.4138L155.961 20.9978C156.167 19.5151 156.84 18.3757 157.987 17.5852C159.128 16.7952 160.567 16.4078 162.3 16.4228C163.763 16.4355 164.933 16.7102 165.816 17.2529C166.7 17.7907 167.25 18.4106 167.477 19.1174C167.704 19.8195 167.813 20.9106 167.802 22.3853L167.759 28.2799C167.746 30.1153 167.813 31.2109 167.958 31.5619L163.934 31.5273C163.794 31.1261 163.726 30.3704 163.734 29.2553C162.765 30.9619 161.339 31.805 159.448 31.7888C158.234 31.7783 157.248 31.4242 156.493 30.7329C155.738 30.0367 155.364 29.0333 155.373 27.7131C155.385 26.0686 155.971 24.798 157.128 23.9032C158.286 23.0132 160.387 22.4913 163.43 22.3427L163.434 21.7876C163.441 20.7978 163.34 20.1121 163.131 19.73C162.928 19.3484 162.523 19.1548 161.921 19.1495C160.817 19.14 160.199 19.8948 160.077 21.4138ZM163.414 24.4723C162.152 24.5964 161.246 24.854 160.7 25.2443C160.158 25.6347 159.884 26.2919 159.878 27.2269C159.869 28.4723 160.349 29.0963 161.316 29.1047C161.839 29.1091 162.316 28.8332 162.748 28.277C163.18 27.7255 163.398 26.6978 163.409 25.2023L163.414 24.4723ZM171.042 16.7978L174.877 16.8308L174.851 20.4008C175.561 17.8874 176.801 16.6378 178.57 16.653C178.786 16.6549 179.034 16.6822 179.314 16.7347L179.285 20.7694C178.968 20.7269 178.725 20.7046 178.562 20.7032C176.444 20.6849 175.376 22.2007 175.354 25.2504L175.308 31.6254L170.936 31.5876L171.042 16.7978ZM180.759 16.8816L184.91 16.9176L184.896 18.9326C185.652 17.3941 186.92 16.6353 188.699 16.6506C190.553 16.6666 191.673 17.4461 192.052 18.9945C192.765 17.4554 194.038 16.6968 195.871 16.7125C196.89 16.7213 197.707 16.9032 198.307 17.2581C198.912 17.6186 199.325 18.1022 199.558 18.7143C199.791 19.326 199.904 20.4771 199.892 22.167L199.823 31.8369L195.451 31.7991L195.517 22.5445C195.525 21.4397 195.445 20.7186 195.284 20.3876C195.123 20.0512 194.76 19.8831 194.195 19.8782C193.514 19.8722 193.068 20.0886 192.859 20.5215C192.65 20.955 192.543 21.829 192.534 23.149L192.472 31.7734L188.1 31.7357L188.167 22.3514C188.175 21.2912 188.1 20.6057 187.944 20.2938C187.782 19.9775 187.425 19.8197 186.854 19.8148C186.157 19.8088 185.691 20.0298 185.455 20.4826C185.219 20.9355 185.097 21.8045 185.088 23.0848L185.026 31.7092L180.653 31.6715L180.759 16.8816Z" fill="#0F9191"/>
<path d="M54.2716 10.9565L41.5438 4.25169C22.8562 9.74254 10.5528 19.1254 10.4756 29.8793C10.3982 40.6113 22.5148 50.1884 41.0572 56.0049L53.9944 49.4624C57.2378 47.8245 59.8502 43.7661 59.8742 40.4451L60.0208 20.074C60.0446 16.7532 57.491 12.65 54.2716 10.9565ZM39.8048 3.33545L35.9416 1.30023C32.7216 -0.392941 27.4494 -0.43847 24.2058 1.19886L5.89839 10.5391C2.65498 12.1768 0.170578 16.2364 0.146778 19.5572L0.000176551 39.9286C-0.0238235 43.2493 2.40178 47.3513 5.62138 49.0451L23.792 58.6998C27.0118 60.3929 32.2838 60.4385 35.5278 58.8012L39.3006 56.8932C18.7584 51.2484 5.06438 41.1906 5.14598 29.8334C5.22798 18.4542 19.118 8.61752 39.8048 3.33545Z" fill="#0F9191"/>
<path d="M41.5438 4.25169L39.8048 3.33545C19.118 8.61752 5.22798 18.4542 5.14598 29.8334C5.06438 41.1906 18.7584 51.2484 39.3006 56.8932L41.0572 56.0049C22.5148 50.1884 10.3982 40.6113 10.4756 29.8793C10.5528 19.1254 22.8562 9.74254 41.5438 4.25169Z" fill="#FEFEFE"/>
<path d="M27.0112 37.3442L27.0608 37.5289L30.8174 37.5612L30.7586 37.3765L26.6884 22.6242L26.6354 22.4396L22.8818 22.4073L22.8282 22.5909L18.6138 37.2717L18.5628 37.4555L22.3166 37.4878L22.361 37.3039L23.0096 35.0171L26.3732 35.0461L27.0112 37.3442ZM24.7592 27.1515L25.6054 31.9487L23.7996 31.9332L24.7144 27.1513L24.7592 27.1515ZM41.741 26.4795C41.7614 23.6344 39.8278 22.533 37.435 22.5123L32.356 22.4684L32.2472 37.5736L35.8812 37.605L35.8828 37.4207L35.9114 33.4501L37.3562 33.4625C39.749 33.4831 41.7 32.1696 41.7182 29.6316L41.741 26.4795ZM38.0826 29.7434C38.08 30.1118 37.762 30.3956 37.3782 30.3923L35.9336 30.3799L35.9682 25.57L37.4128 25.5825C37.7966 25.5858 38.1106 25.8751 38.108 26.223L38.0826 29.7434ZM47.339 26.5482C47.3418 26.1798 47.6598 25.8961 48.0662 25.8996L51.7458 25.9314L51.7694 22.6359L48.09 22.6042C45.6744 22.5834 43.7204 24.3269 43.7046 26.5168L43.6526 33.7419C43.637 35.9116 45.5658 37.6884 47.9812 37.7094L51.8414 37.7427L51.8652 34.4474L48.005 34.4142C47.5986 34.4107 47.2846 34.1213 47.287 33.7732L47.339 26.5482Z" fill="#FEFEFE"/>
<path d="M41.5438 4.25169L39.8048 3.33545C19.118 8.61752 5.22798 18.4542 5.14598 29.8334C5.06438 41.1906 18.7584 51.2484 39.3006 56.8932L41.0572 56.0049C22.5148 50.1884 10.3982 40.6113 10.4756 29.8793C10.5528 19.1254 22.8562 9.74254 41.5438 4.25169Z" fill="#FEFEFE"/>
</svg>
