<svg width="48" height="48" viewBox="0 0 48 48" fill="none" xmlns="http://www.w3.org/2000/svg">
<path d="M26.0581 4.00195C28.3089 4.00567 29.4495 4.01757 30.4351 4.04691L30.8233 4.05961C31.2717 4.07555 31.7141 4.09555 32.2475 4.12055C34.3757 4.21887 35.8275 4.55555 37.1025 5.05055C38.4207 5.55887 39.5341 6.24555 40.6457 7.35721C41.7557 8.46887 42.4425 9.58555 42.9525 10.9006C43.4457 12.1739 43.7825 13.6272 43.8825 15.7556C43.9063 16.2889 43.9255 16.7313 43.9413 17.1798L43.9539 17.5679C43.9831 18.5534 43.9965 19.6942 44.0007 21.945L44.0023 23.4364C44.0025 23.6186 44.0025 23.8066 44.0025 24.0006L44.0023 24.5648L44.0011 26.0562C43.9973 28.307 43.9855 29.4476 43.9561 30.4332L43.9433 30.8214C43.9275 31.2698 43.9075 31.7122 43.8825 32.2456C43.7841 34.3738 43.4457 35.8256 42.9525 37.1006C42.4441 38.4188 41.7557 39.5322 40.6457 40.6438C39.5341 41.7538 38.4157 42.4406 37.1025 42.9506C35.8275 43.4438 34.3757 43.7806 32.2475 43.8806C31.7141 43.9044 31.2717 43.9236 30.8233 43.9394L30.4351 43.952C29.4495 43.9812 28.3089 43.9946 26.0581 43.9988L24.5667 44.0004C24.3845 44.0006 24.1965 44.0006 24.0025 44.0006L23.4383 44.0004L21.9469 43.9992C19.6961 43.9954 18.5554 43.9836 17.5699 43.9542L17.1817 43.9414C16.7332 43.9256 16.2908 43.9056 15.7575 43.8806C13.6292 43.7822 12.1792 43.4438 10.9025 42.9506C9.58583 42.4422 8.47083 41.7538 7.35917 40.6438C6.24751 39.5322 5.56251 38.4138 5.05251 37.1006C4.55751 35.8256 4.22251 34.3738 4.12251 32.2456C4.09875 31.7122 4.07937 31.2698 4.06367 30.8214L4.05109 30.4332C4.02183 29.4476 4.00849 28.307 4.00417 26.0562L4.00391 21.945C4.00763 19.6942 4.01953 18.5534 4.04887 17.5679L4.06157 17.1798C4.07751 16.7313 4.09751 16.2889 4.12251 15.7556C4.22083 13.6256 4.55751 12.1756 5.05251 10.9006C5.56083 9.58387 6.24751 8.46887 7.35917 7.35721C8.47083 6.24555 9.58751 5.56055 10.9025 5.05055C12.1775 4.55555 13.6275 4.22055 15.7575 4.12055C16.2908 4.09679 16.7332 4.07741 17.1817 4.06171L17.5699 4.04913C18.5554 4.01987 19.6961 4.00653 21.9469 4.00221L26.0581 4.00195ZM24.0025 14.0006C18.4767 14.0006 14.0025 18.4796 14.0025 24.0006C14.0025 29.5264 18.4816 34.0006 24.0025 34.0006C29.5283 34.0006 34.0025 29.5214 34.0025 24.0006C34.0025 18.4748 29.5233 14.0006 24.0025 14.0006ZM24.0025 18.0006C27.3163 18.0006 30.0025 20.6858 30.0025 24.0006C30.0025 27.3144 27.3171 30.0006 24.0025 30.0006C20.6887 30.0006 18.0025 27.3152 18.0025 24.0006C18.0025 20.6868 20.6877 18.0006 24.0025 18.0006ZM34.5025 11.0006C33.1239 11.0006 32.0025 12.1204 32.0025 13.4989C32.0025 14.8773 33.1223 15.9989 34.5025 15.9989C35.8809 15.9989 37.0025 14.8791 37.0025 13.4989C37.0025 12.1204 35.8791 10.9988 34.5025 11.0006Z" fill="white"/>
</svg>
