<svg width="48" height="48" viewBox="0 0 48 48" fill="none" xmlns="http://www.w3.org/2000/svg">
<path d="M24.0039 44C12.9582 44 4.00391 35.0456 4.00391 24C4.00391 12.9543 12.9582 4 24.0039 4C35.0495 4 44.0039 12.9543 44.0039 24C44.0039 35.0456 35.0495 44 24.0039 44ZM17.7842 26.3416L17.8095 26.3256C18.969 30.1534 19.5487 32.0674 19.5487 32.0674C19.7732 32.6884 20.0819 32.7992 20.4565 32.7486C20.8309 32.6978 21.0297 32.4952 21.2741 32.2594C21.2741 32.2594 22.0667 31.4944 23.6519 29.9646L28.7537 33.7396C29.6833 34.2532 30.3545 33.9882 30.5853 32.8754L33.9009 17.2328C34.2669 15.7768 33.6249 15.1929 32.4959 15.6551L13.0299 23.1742C11.7019 23.708 11.7083 24.451 12.7881 24.7822L17.7842 26.3416Z" fill="white"/>
</svg>
